# 3ds Max Wavefront OBJ Exporter v0.97b - (c)2007 guruware
# File Created: 21.04.2010 15:36:32

#
# object Collision_Floor
#

v  -1503.3011 12.9921 -48.0267
v  -1503.4635 12.9921 147.0500
v  -1234.8733 12.9921 110.8339
v  -1130.5452 12.9921 -46.3264
v  -1183.0715 12.9921 147.0500
v  -1079.8679 12.9921 133.2067
v  -844.7292 12.9921 -138.8815
v  -872.6234 12.9921 239.1057
v  -766.7245 12.9921 225.2991
v  -692.6814 12.9921 -239.9391
v  1525.9951 12.9921 114.8103
v  1525.9951 12.9921 -103.3226
v  1014.5806 12.9921 -127.7447
v  1295.2413 12.9921 133.5102
v  1182.2191 12.9921 181.9725
v  1047.3643 12.9921 155.1053
v  915.6862 12.9921 52.8996
v  690.3662 12.9921 -195.7290
v  720.0707 12.9921 42.2019
v  416.5231 12.9921 124.0269
v  230.1265 12.9921 -243.9480
v  88.8747 12.9921 -139.2560
v  -76.9456 12.9921 396.8525
v  -235.0681 12.9921 -180.8922
v  -564.1801 12.9921 326.6081
v  -564.1801 170.4724 326.6081
v  -76.9456 170.4724 396.8525
# 27 vertices

vn 0.0000 1.0000 -0.0000
vn 0.0761 0.8461 -0.5276
vn 0.0694 0.8737 -0.4815
vn 0.1427 0.0000 -0.9898
# 4 vertex normals

g Collision_Floor
s 1
f 1//1 2//1 3//1 4//1 
f 4//1 3//1 5//1 6//1 
f 7//1 4//1 6//1 8//1 
f 7//1 8//1 9//1 10//1 
f 11//1 12//1 13//1 14//1 
f 15//1 14//1 13//1 16//1 
f 17//1 16//1 13//1 18//1 
f 19//1 17//1 18//1 20//1 
f 20//1 18//1 21//1 22//1 
f 23//2 20//1 22//1 24//1 
f 25//3 23//2 24//1 10//1 
f 9//1 25//3 10//1 
f 26//4 27//4 23//2 25//3 
# 12 polygons - 1 triangles

