# 3ds Max Wavefront OBJ Exporter v0.97b - (c)2007 guruware
# File Created: 30.04.2010 04:41:02

#
# object Cavern5_Collision
#

v  529.2842 0.0000 3197.4941
v  -318.1191 0.0000 3607.2266
v  110.2383 0.0000 3588.6016
v  324.4170 0.0000 3318.5508
v  827.2715 0.0000 3281.3027
v  1106.6357 0.0000 3448.9199
v  1534.9932 0.0000 3495.4805
v  2065.7852 0.0000 3448.9199
v  1860.9180 0.0000 3532.7305
v  100.9258 0.0000 1092.9541
v  2214.7793 0.0000 3216.1172
v  2233.4023 0.0000 1530.6230
v  1702.6113 0.0000 906.7109
v  2028.5361 0.0000 1186.0742
v  1255.6299 0.0000 701.8447
v  827.2715 0.0000 636.6592
v  287.1689 0.0000 897.3994
v  -178.4375 0.0000 1232.6348
v  -780.9248 0.0000 1273.5605
v  -662.6680 0.0000 888.0869
v  -876.8477 0.0000 767.0293
v  -1295.8926 0.0000 999.8330
v  -448.4893 0.0000 1176.7617
v  -1091.0264 0.0000 850.8389
v  -1519.3838 0.0000 981.2080
v  -1071.5039 0.0000 -132.6172
v  -1066.1084 0.0000 -135.2393
v  -336.7441 0.0000 -555.2930
v  -1482.1357 0.0000 59.3076
v  -774.4141 0.0000 -285.2412
v  389.6016 0.0000 -1216.4531
v  -10.8193 0.0000 -816.0322
v  557.2197 0.0000 -1346.8232
v  1711.9238 0.0000 -2808.8271
v  808.6475 0.0000 -1300.2627
v  1118.0908 0.0000 -1450.1680
v  1181.1328 0.0000 -1616.8750
v  1376.6875 0.0000 -1924.1748
v  1786.4209 0.0000 -2510.8389
v  1469.8086 0.0000 -2939.1963
v  1134.5723 0.0000 -2948.5088
v  706.2139 0.0000 -2855.3877
v  864.5205 0.0000 -2901.9482
v  557.2197 0.0000 -2929.8848
v  315.1045 0.0000 -2939.1963
v  138.1748 0.0000 -2818.1396
v  -652.0029 0.0000 -2710.4697
v  -197.0625 0.0000 -2967.1338
v  -411.2412 0.0000 -3013.6943
v  -718.5410 0.0000 -3023.0059
v  -48.0684 0.0000 -2827.4512
v  -1010.5752 0.0000 -3533.2061
v  -1155.1768 0.0000 -3800.5049
v  -1958.0869 0.0000 -3522.6563
v  -923.4082 0.0000 -3172.0000
v  -1863.8379 0.0000 -3800.5049
v  -1694.6748 0.0000 -3138.5146
v  -1310.5322 0.0000 -2688.5195
v  -860.5371 0.0000 -2677.5439
v  -1069.0713 0.0000 -2589.7393
v  -311.7627 0.0000 -2545.8379
v  -92.2529 0.0000 -2479.9854
v  160.1836 0.0000 -2578.7646
v  401.6445 0.0000 -2666.5684
v  588.2275 0.0000 -2600.7158
v  622.3623 0.0000 -2438.2295
v  546.9941 0.0000 -2263.6904
v  -275.3740 0.0000 -1253.3643
v  -16.2920 0.0000 -1748.0059
v  -135.2959 0.0000 -1652.8027
v  -163.1768 0.0000 -1432.8809
v  186.0146 0.0000 -1855.1104
v  -2269.5713 0.0000 500.7559
v  -449.2813 0.0000 -1163.6055
v  -886.8535 0.0000 -804.5713
v  -1363.6953 0.0000 -445.5381
v  -1579.1045 0.0000 -238.6289
v  -1538.0439 0.0000 -342.4854
v  -1703.2549 0.0000 -178.1338
v  -1836.7305 0.0000 -177.9033
v  -1952.6406 0.0000 -99.1523
v  -2109.3623 0.0000 162.7793
v  -1733.5625 0.0000 590.0986
v  -1677.6904 0.0000 329.3594
v  -1687.0020 0.0000 869.4629
v  -2278.1924 0.0000 974.8857
v  -2088.5400 0.0000 1224.8809
v  -1778.2002 0.0000 1543.8398
v  -1950.6113 0.0000 1457.6348
v  -1207.3477 0.0000 1218.5391
v  -1551.2363 0.0000 1541.7949
v  -1386.1699 0.0000 1417.9941
v  -1090.4248 0.0000 1156.6387
v  -897.8477 0.0000 1149.7617
v  -733.2275 0.0000 1846.7207
v  -705.2695 0.0000 1534.9160
v  -976.3936 0.0000 1982.8945
v  -1161.2002 0.0000 2187.1543
v  -1336.2793 0.0000 2712.3926
v  -1346.0059 0.0000 2449.7734
v  -638.2178 0.0000 3470.1504
v  -1021.7598 0.0000 3165.0605
v  -1071.8965 7.0651 -140.2861
v  -1068.8027 3.0000 -133.9209
# 104 vertices

vn 0.0000 1.0000 -0.0000
vn -0.3090 -0.7073 -0.6358
vn -0.4253 0.6547 0.6249
vn 0.7541 0.6547 0.0516
# 4 vertex normals

vt 0.0000 0.0000 0.5465
# 1 texture coords

g Cavern5_Collision
s 1
f 1/1/1 2/1/1 3/1/1 4/1/1 
f 5/1/1 6/1/1 7/1/1 8/1/1 
f 7/1/1 9/1/1 8/1/1 
f 5/1/1 8/1/1 10/1/1 1/1/1 
f 11/1/1 12/1/1 13/1/1 8/1/1 
f 12/1/1 14/1/1 13/1/1 
f 10/1/1 13/1/1 15/1/1 16/1/1 
f 16/1/1 17/1/1 10/1/1 
f 8/1/1 13/1/1 10/1/1 
f 10/1/1 18/1/1 19/1/1 1/1/1 
f 20/1/1 21/1/1 22/1/1 23/1/1 
f 21/1/1 24/1/1 22/1/1 
f 25/1/1 18/1/1 23/1/1 22/1/1 
f 26/1/1 27/1/1 28/1/1 29/1/1 
f 27/1/1 30/1/1 28/1/1 
f 31/1/1 29/1/1 28/1/1 32/1/1 
f 29/1/1 31/1/1 33/1/1 34/1/1 
f 35/1/1 36/1/1 37/1/1 33/1/1 
f 38/1/1 39/1/1 34/1/1 37/1/1 
f 33/1/1 37/1/1 34/1/1 
f 40/1/1 41/1/1 42/1/1 34/1/1 
f 41/1/1 43/1/1 42/1/1 
f 44/1/1 45/1/1 46/1/1 42/1/1 
f 42/1/1 46/1/1 47/1/1 34/1/1 
f 48/1/1 49/1/1 50/1/1 51/1/1 
f 52/1/1 53/1/1 54/1/1 55/1/1 
f 53/1/1 56/1/1 54/1/1 
f 50/1/1 55/1/1 54/1/1 47/1/1 
f 54/1/1 57/1/1 58/1/1 59/1/1 
f 58/1/1 60/1/1 59/1/1 
f 54/1/1 59/1/1 47/1/1 
f 47/1/1 46/1/1 51/1/1 50/1/1 
f 47/1/1 61/1/1 62/1/1 63/1/1 
f 47/1/1 63/1/1 64/1/1 34/1/1 
f 64/1/1 65/1/1 66/1/1 34/1/1 
f 34/1/1 66/1/1 67/1/1 68/1/1 
f 69/1/1 70/1/1 71/1/1 72/1/1 
f 68/1/1 67/1/1 72/1/1 71/1/1 
f 34/1/1 68/1/1 73/1/1 29/1/1 
f 74/1/1 75/1/1 76/1/1 68/1/1 
f 77/1/1 68/1/1 76/1/1 78/1/1 
f 79/1/1 80/1/1 81/1/1 73/1/1 
f 81/1/1 82/1/1 73/1/1 
f 73/1/1 68/1/1 77/1/1 79/1/1 
f 73/1/1 83/1/1 84/1/1 29/1/1 
f 85/1/1 83/1/1 73/1/1 25/1/1 
f 86/1/1 87/1/1 88/1/1 73/1/1 
f 87/1/1 89/1/1 88/1/1 
f 90/1/1 88/1/1 91/1/1 92/1/1 
f 73/1/1 88/1/1 90/1/1 25/1/1 
f 90/1/1 93/1/1 94/1/1 25/1/1 
f 25/1/1 94/1/1 19/1/1 18/1/1 
f 95/1/1 1/1/1 19/1/1 96/1/1 
f 95/1/1 97/1/1 98/1/1 99/1/1 
f 98/1/1 100/1/1 99/1/1 
f 2/1/1 1/1/1 95/1/1 99/1/1 
f 101/1/1 2/1/1 99/1/1 102/1/1 
s off
f 26/1/2 103/1/2 27/1/2 
f 104/1/3 103/1/3 26/1/3 
f 27/1/4 103/1/4 104/1/4 
# 43 polygons - 17 triangles

