# 3ds Max Wavefront OBJ Exporter v0.97b - (c)2007 guruware
# File Created: 15.04.2010 16:25:35

#
# object Collision_Mesh
#

v  174.6059 -227.4147 -1732.6301
v  201.8652 -227.4147 -1825.3656
v  -132.1004 -227.4147 -1822.6136
v  -433.9268 -227.4147 -1231.9360
v  -44.2433 -227.4147 1823.0059
v  245.4754 -227.4147 1825.8481
v  -125.5738 -227.4147 1167.7799
v  -398.1805 -227.4147 1326.3066
v  -454.4124 -227.4147 894.4643
v  -256.7549 -227.4147 746.8747
v  -445.6520 -227.4147 593.8192
v  -262.2261 -227.4147 522.7574
v  -600.6276 -227.4147 489.9567
v  -196.6356 -227.4147 397.0314
v  158.6736 -227.4147 96.3809
v  139.7107 -227.4147 -9.6753
v  61.8245 -227.4147 -72.8323
v  114.9466 -227.4147 172.9087
v  -70.9041 -227.4147 211.1752
v  -67.4599 -227.4147 -20.2499
v  -278.1171 -227.4147 136.8437
v  -359.7943 -227.4147 50.4742
v  -742.7512 -227.4147 222.1070
v  -719.6857 -227.4147 -73.0721
v  -328.1873 -227.4147 -219.0470
v  -591.1356 -227.4147 -532.2440
v  -187.4326 -227.4147 -581.0856
v  -533.8385 -227.4147 -871.1555
v  -174.3468 -227.4147 -986.7433
v  87.3677 -227.4147 -1457.8297
v  174.6059 14.1704 -1732.6301
v  201.8652 14.1704 -1825.3656
v  -132.1004 14.1704 -1822.6136
v  -433.9268 14.1704 -1231.9360
v  -533.8385 14.1704 -871.1555
v  -591.1356 14.1704 -532.2440
v  -719.6857 14.1704 -73.0721
v  -742.7512 14.1704 222.1070
v  -600.6276 14.1704 489.9567
v  -445.6520 14.1704 593.8192
v  -454.4124 14.1704 894.4643
v  -398.1805 14.1704 1326.3066
v  -44.2433 14.1704 1823.0059
v  245.4754 14.1704 1825.8481
v  -125.5738 14.1704 1167.7799
v  -256.7549 14.1704 746.8747
v  -262.2261 14.1704 522.7574
v  -196.6356 14.1704 397.0314
v  -70.9041 14.1704 211.1752
v  114.9466 14.1704 172.9087
v  158.6736 14.1704 96.3809
v  139.7107 14.1704 -9.6753
v  61.8245 14.1704 -72.8323
v  -67.4599 14.1704 -20.2499
v  -278.1171 14.1704 136.8437
v  -359.7943 14.1704 50.4742
v  -328.1873 14.1704 -219.0470
v  -187.4326 14.1704 -581.0856
v  -174.3468 14.1704 -986.7433
v  87.3677 14.1704 -1457.8297
# 60 vertices

vn 0.0000 1.0000 -0.0000
vn -0.9594 0.0000 -0.2820
vn 0.8905 0.0000 0.4550
vn 0.9637 0.0000 0.2669
vn 0.9860 0.0000 0.1667
vn 0.9630 0.0000 0.2696
vn 0.9970 0.0000 0.0779
vn 0.8834 0.0000 -0.4687
vn 0.5567 0.0000 -0.8307
vn 0.9996 0.0000 0.0291
vn 0.9916 0.0000 -0.1291
vn 0.8144 0.0000 -0.5803
vn -0.8711 0.0000 0.4912
vn -0.9547 0.0000 0.2975
vn -0.9997 0.0000 0.0244
vn -0.8866 0.0000 -0.4625
vn -0.8283 0.0000 -0.5603
vn -0.2017 0.0000 -0.9795
vn -0.8683 0.0000 -0.4961
vn -0.9844 0.0000 0.1760
vn -0.6298 0.0000 0.7767
vn 0.3768 0.0000 0.9263
vn 0.5978 0.0000 0.8016
vn -0.7266 0.0000 0.6871
vn -0.9932 0.0000 -0.1165
vn -0.9320 0.0000 -0.3624
vn -0.9995 0.0000 -0.0322
vn -0.8742 0.0000 -0.4856
vn -0.9531 0.0000 -0.3026
# 29 vertex normals

g Collision_Mesh
s 1
f 1//1 2//1 3//1 
f 1//1 3//1 4//1 
f 5//1 6//1 7//1 
f 8//1 5//1 7//1 
f 9//1 8//1 7//1 
f 9//1 7//1 10//1 
f 11//1 9//1 10//1 
f 11//1 10//1 12//1 
f 13//1 11//1 12//1 
f 13//1 12//1 14//1 
f 15//1 16//1 17//1 
f 18//1 15//1 17//1 
f 19//1 18//1 17//1 
f 19//1 17//1 20//1 
f 19//1 20//1 21//1 
f 14//1 19//1 21//1 
f 13//1 14//1 21//1 
f 13//1 21//1 22//1 
f 23//1 13//1 22//1 
f 24//1 23//1 22//1 
f 24//1 22//1 25//1 
f 26//1 24//1 25//1 
f 26//1 25//1 27//1 
f 28//1 26//1 27//1 
f 28//1 27//1 29//1 
f 4//1 28//1 29//1 
f 4//1 29//1 30//1 
f 1//1 4//1 30//1 
s off
f 1//2 31//2 32//2 
f 32//2 2//2 1//2 
f 4//3 3//3 33//3 
f 33//3 34//3 4//3 
f 28//4 4//4 34//4 
f 34//4 35//4 28//4 
f 26//5 28//5 35//5 
f 35//5 36//5 26//5 
f 24//6 26//6 36//6 
f 36//6 37//6 24//6 
f 23//7 24//7 37//7 
f 37//7 38//7 23//7 
f 13//8 23//8 38//8 
f 38//8 39//8 13//8 
f 11//9 13//9 39//9 
f 39//9 40//9 11//9 
f 9//10 11//10 40//10 
f 40//10 41//10 9//10 
f 8//11 9//11 41//11 
f 41//11 42//11 8//11 
f 5//12 8//12 42//12 
f 42//12 43//12 5//12 
f 7//13 6//13 44//13 
f 44//13 45//13 7//13 
f 10//14 7//14 45//14 
f 45//14 46//14 10//14 
f 12//15 10//15 46//15 
f 46//15 47//15 12//15 
f 14//16 12//16 47//16 
f 47//16 48//16 14//16 
f 19//17 14//17 48//17 
f 48//17 49//17 19//17 
f 18//18 19//18 49//18 
f 49//18 50//18 18//18 
f 15//19 18//19 50//19 
f 50//19 51//19 15//19 
f 16//20 15//20 51//20 
f 51//20 52//20 16//20 
f 17//21 16//21 52//21 
f 52//21 53//21 17//21 
f 20//22 17//22 53//22 
f 53//22 54//22 20//22 
f 21//23 20//23 54//23 
f 54//23 55//23 21//23 
f 22//24 21//24 55//24 
f 55//24 56//24 22//24 
f 25//25 22//25 56//25 
f 56//25 57//25 25//25 
f 27//26 25//26 57//26 
f 57//26 58//26 27//26 
f 29//27 27//27 58//27 
f 58//27 59//27 29//27 
f 30//28 29//28 59//28 
f 59//28 60//28 30//28 
f 1//29 30//29 60//29 
f 60//29 31//29 1//29 
# 84 faces

