# 3ds Max Wavefront OBJ Exporter v0.97b - (c)2007 guruware
# File Created: 31.03.2010 04:02:27

#
# object Collision_Floor
#

v  -1503.3011 12.9921 -48.0267
v  -1503.4635 12.9921 147.0500
v  -1234.8733 12.9921 110.8339
v  -1130.5452 12.9921 -46.3264
v  -1183.0715 12.9921 147.0500
v  -1079.8679 12.9921 133.2067
v  -844.7292 12.9921 -138.8815
v  -872.6234 12.9921 239.1057
v  -766.7245 12.9921 225.2991
v  1525.9951 12.9921 114.8103
v  1525.9951 12.9921 -103.3226
v  1014.5806 12.9921 -127.7447
v  1295.2413 12.9921 133.5102
v  1182.2191 12.9921 181.9725
v  1047.3643 12.9921 155.1053
v  915.6862 12.9921 52.8996
v  690.3662 12.9921 -195.7290
v  720.0707 12.9921 42.2019
v  416.5231 12.9921 124.0269
v  230.1265 12.9921 -243.9480
v  88.8747 12.9921 -139.2560
v  -76.9456 12.9921 396.8525
v  -235.0681 12.9921 -180.8922
v  -564.1801 12.9921 326.6081
v  -692.6814 12.9921 -239.9391
v  -1503.4635 170.4724 147.0500
v  -1234.8733 170.4724 110.8339
v  -1130.5452 170.4724 -46.3264
v  -1503.3011 170.4724 -48.0267
v  -1183.0715 170.4724 147.0500
v  -1079.8679 170.4724 133.2067
v  -844.7292 170.4724 -138.8815
v  -872.6234 170.4724 239.1057
v  -766.7245 170.4724 225.2991
v  1525.9951 170.4724 -103.3226
v  1014.5806 170.4724 -127.7447
v  1295.2413 170.4724 133.5102
v  1525.9951 170.4724 114.8103
v  1182.2191 170.4724 181.9725
v  1047.3643 170.4724 155.1053
v  915.6862 170.4724 52.8996
v  690.3662 170.4724 -195.7290
v  720.0707 170.4724 42.2019
v  416.5231 170.4724 124.0269
v  230.1265 170.4724 -243.9480
v  88.8747 170.4724 -139.2560
v  -76.9456 170.4724 396.8525
v  -235.0681 170.4724 -180.8922
v  -564.1801 170.4724 326.6081
v  -692.6814 170.4724 -239.9391
# 50 vertices

vn -0.0032 0.7063 0.7079
vn -0.0986 0.6747 -0.7315
vn 0.1419 0.7988 -0.5846
vn 0.1026 0.7445 0.6597
vn 0.1827 0.6338 -0.7517
vn 0.1054 0.7808 -0.6158
vn 0.2929 0.7391 0.6066
vn 0.1302 0.6461 -0.7521
vn 0.1042 0.7792 -0.6180
vn -0.0557 0.7246 -0.6869
vn -0.0332 0.7176 0.6957
vn -0.0873 0.7254 0.6827
vn -0.1604 0.7453 -0.6471
vn -0.0794 0.6461 -0.7591
vn 0.3125 0.6589 -0.6843
vn 0.2186 0.7808 -0.5854
vn -0.1113 0.6958 0.7096
vn -0.0695 0.7445 -0.6640
vn -0.2540 0.7353 -0.6284
vn 0.2039 0.6339 0.7461
vn 0.1508 0.8016 0.5785
vn -0.1380 0.6420 -0.7542
vn -0.0903 0.7072 0.7013
vn 0.2211 0.6729 -0.7059
vn 0.1752 0.6362 0.7514
vn -0.1336 0.0000 -0.9910
vn 0.2358 0.0000 -0.9718
vn 0.1537 0.0000 0.9881
vn -0.0046 0.0000 1.0000
vn 0.2361 0.0000 -0.9717
vn 0.1687 0.0000 -0.9857
vn 0.4349 0.0000 0.9005
vn 0.1705 0.0000 -0.9854
vn 0.1663 0.0000 -0.9861
vn -0.0477 0.0000 0.9989
vn -0.1269 0.0000 0.9919
vn -0.2406 0.0000 -0.9706
vn -0.0808 0.0000 -0.9967
vn -0.1040 0.0000 -0.9946
vn 0.4154 0.0000 -0.9097
vn 0.3498 0.0000 -0.9368
vn -0.1549 0.0000 0.9879
vn -0.1041 0.0000 -0.9946
vn -0.3748 0.0000 -0.9271
vn 0.2636 0.0000 0.9646
vn 0.2522 0.0000 0.9677
vn -0.1799 0.0000 -0.9837
vn -0.1277 0.0000 0.9918
vn 0.2989 0.0000 -0.9543
vn 0.2271 0.0000 0.9739
# 50 vertex normals

g Collision_Floor
s 1
f 1//1 2//2 3//3 
f 4//4 1//1 3//3 
f 4//4 3//3 5//5 
f 4//4 5//5 6//6 
f 7//7 4//4 6//6 
f 7//7 6//6 8//8 
f 7//7 8//8 9//9 
f 10//10 11//11 12//12 
f 13//13 10//10 12//12 
f 14//14 13//13 12//12 
f 15//15 14//14 12//12 
f 16//16 15//15 12//12 
f 16//16 12//12 17//17 
f 18//18 16//16 17//17 
f 19//19 18//18 17//17 
f 19//19 17//17 20//20 
f 19//19 20//20 21//21 
f 22//22 19//19 21//21 
f 22//22 21//21 23//23 
f 24//24 22//22 23//23 
f 24//24 23//23 25//25 
f 9//9 24//24 25//25 
f 7//7 9//9 25//25 