# 3ds Max Wavefront OBJ Exporter v0.97b - (c)2007 guruware
# File Created: 30.04.2010 04:40:23

#
# object Cavern5_Collision
#

v  529.2842 0.0000 3197.4941
v  -318.1191 0.0000 3607.2266
v  110.2383 0.0000 3588.6016
v  324.4170 0.0000 3318.5508
v  827.2715 0.0000 3281.3027
v  1106.6357 0.0000 3448.9199
v  1534.9932 0.0000 3495.4805
v  2065.7852 0.0000 3448.9199
v  1860.9180 0.0000 3532.7305
v  100.9258 0.0000 1092.9541
v  2214.7793 0.0000 3216.1172
v  2233.4023 0.0000 1530.6230
v  1702.6113 0.0000 906.7109
v  2028.5361 0.0000 1186.0742
v  1255.6299 0.0000 701.8447
v  827.2715 0.0000 636.6592
v  287.1689 0.0000 897.3994
v  -178.4375 0.0000 1232.6348
v  -780.9248 0.0000 1273.5605
v  -662.6680 0.0000 888.0869
v  -876.8477 0.0000 767.0293
v  -1295.8926 0.0000 999.8330
v  -448.4893 0.0000 1176.7617
v  -1091.0264 0.0000 850.8389
v  -1519.3838 0.0000 981.2080
v  -1071.5039 0.0000 -132.6172
v  -1066.1084 0.0000 -135.2393
v  -336.7441 0.0000 -555.2930
v  -1482.1357 0.0000 59.3076
v  -774.4141 0.0000 -285.2412
v  389.6016 0.0000 -1216.4531
v  -10.8193 0.0000 -816.0322
v  557.2197 0.0000 -1346.8232
v  1711.9238 0.0000 -2808.8271
v  808.6475 0.0000 -1300.2627
v  1118.0908 0.0000 -1450.1680
v  1181.1328 0.0000 -1616.8750
v  1376.6875 0.0000 -1924.1748
v  1786.4209 0.0000 -2510.8389
v  1469.8086 0.0000 -2939.1963
v  1134.5723 0.0000 -2948.5088
v  706.2139 0.0000 -2855.3877
v  864.5205 0.0000 -2901.9482
v  557.2197 0.0000 -2929.8848
v  315.1045 0.0000 -2939.1963
v  138.1748 0.0000 -2818.1396
v  -652.0029 0.0000 -2710.4697
v  -197.0625 0.0000 -2967.1338
v  -411.2412 0.0000 -3013.6943
v  -718.5410 0.0000 -3023.0059
v  -48.0684 0.0000 -2827.4512
v  -1010.5752 0.0000 -3533.2061
v  -1155.1768 0.0000 -3800.5049
v  -1958.0869 0.0000 -3522.6563
v  -923.4082 0.0000 -3172.0000
v  -1863.8379 0.0000 -3800.5049
v  -1694.6748 0.0000 -3138.5146
v  -1310.5322 0.0000 -2688.5195
v  -860.5371 0.0000 -2677.5439
v  -1069.0713 0.0000 -2589.7393
v  -311.7627 0.0000 -2545.8379
v  -92.2529 0.0000 -2479.9854
v  160.1836 0.0000 -2578.7646
v  401.6445 0.0000 -2666.5684
v  588.2275 0.0000 -2600.7158
v  622.3623 0.0000 -2438.2295
v  546.9941 0.0000 -2263.6904
v  -275.3740 0.0000 -1253.3643
v  -16.2920 0.0000 -1748.0059
v  -135.2959 0.0000 -1652.8027
v  -163.1768 0.0000 -1432.8809
v  186.0146 0.0000 -1855.1104
v  -2269.5713 0.0000 500.7559
v  -449.2813 0.0000 -1163.6055
v  -886.8535 0.0000 -804.5713
v  -1363.6953 0.0000 -445.5381
v  -1579.1045 0.0000 -238.6289
v  -1538.0439 0.0000 -342.4854
v  -1703.2549 0.0000 -178.1338
v  -1836.7305 0.0000 -177.9033
v  -1952.6406 0.0000 -99.1523
v  -2109.3623 0.0000 162.7793
v  -1733.5625 0.0000 590.0986
v  -1677.6904 0.0000 329.3594
v  -1687.0020 0.0000 869.4629
v  -2278.1924 0.0000 974.8857
v  -2088.5400 0.0000 1224.8809
v  -1778.2002 0.0000 1543.8398
v  -1950.6113 0.0000 1457.6348
v  -1207.3477 0.0000 1218.5391
v  -1551.2363 0.0000 1541.7949
v  -1386.1699 0.0000 1417.9941
v  -1090.4248 0.0000 1156.6387
v  -897.8477 0.0000 1149.7617
v  -733.2275 0.0000 1846.7207
v  -705.2695 0.0000 1534.9160
v  -976.3936 0.0000 1982.8945
v  -1161.2002 0.0000 2187.1543
v  -1336.2793 0.0000 2712.3926
v  -1346.0059 0.0000 2449.7734
v  -638.2178 0.0000 3470.1504
v  -1021.7598 0.0000 3165.0605
v  -318.1191 472.4409 3607.2266
v  110.2383 472.4409 3588.6016
v  324.4170 472.4409 3318.5508
v  529.2842 472.4409 3197.4941
v  827.2715 472.4409 3281.3027
v  1106.6357 472.4409 3448.9199
v  1534.9932 472.4409 3495.4805
v  1860.9180 472.4409 3532.7305
v  2065.7852 472.4409 3448.9199
v  2214.7793 472.4409 3216.1172
v  2233.4023 472.4409 1530.6230
v  2028.5361 472.4409 1186.0742
v  1702.6113 472.4409 906.7109
v  1255.6299 472.4409 701.8447
v  827.2715 472.4409 636.6592
v  287.1689 472.4409 897.3994
v  100.9258 472.4409 1092.9541
v  -178.4375 472.4409 1232.6348
v  -448.4893 472.4409 1176.7617
v  -662.6680 472.4409 888.0869
v  -876.8477 472.4409 767.0293
v  -1091.0264 472.4409 850.8389
v  -1295.8926 472.4409 999.8330
v  -1519.3838 472.4409 981.2080
v  -1687.0020 472.4409 869.4629
v  -1733.5625 472.4409 590.0986
v  -1677.6904 472.4409 329.3594
v  -1482.1357 472.4409 59.3076
v  -1071.5039 472.4409 -132.6172
v  -1068.8027 469.4409 -133.9209
v  -1068.8027 3.0000 -133.9209
v  -1066.1084 472.4409 -135.2393
v  -774.4141 472.4409 -285.2412
v  -336.7441 472.4409 -555.2930
v  -10.8193 472.4409 -816.0322
v  389.6016 472.4409 -1216.4531
v  557.2197 472.4409 -1346.8232
v  808.6475 472.4409 -1300.2627
v  1118.0908 472.4409 -1450.1680
v  1181.1328 472.4409 -1616.8750
v  1376.6875 472.4409 -1924.1748
v  1786.4209 472.4409 -2510.8389
v  1711.9238 472.4409 -2808.8271
v  1469.8086 472.4409 -2939.1963
v  1134.5723 472.4409 -2948.5088
v  864.5205 472.4409 -2901.9482
v  706.2139 472.4409 -2855.3877
v  557.2197 472.4409 -2929.8848
v  315.1045 472.4409 -2939.1963
v  138.1748 472.4409 -2818.1396
v  -48.0684 472.4409 -2827.4512
v  -197.0625 472.4409 -2967.1338
v  -411.2412 472.4409 -3013.6943
v  -718.5410 472.4409 -3023.0059
v  -923.4082 472.4409 -3172.0000
v  -1010.5752 472.4409 -3533.2061
v  -1155.1768 472.4409 -3800.5049
v  -1958.0869 472.4409 -3522.6563
v  -1863.8379 472.4409 -3800.5049
v  -1694.6748 472.4409 -3138.5146
v  -1310.5322 472.4409 -2688.5195
v  -1069.0713 472.4409 -2589.7393
v  -860.5371 472.4409 -2677.5439
v  -652.0029 472.4409 -2710.4697
v  -311.7627 472.4409 -2545.8379
v  -92.2529 472.4409 -2479.9854
v  160.1836 472.4409 -2578.7646
v  401.6445 472.4409 -2666.5684
v  588.2275 472.4409 -2600.7158
v  622.3623 472.4409 -2438.2295
v  546.9941 472.4409 -2263.6904
v  186.0146 472.4409 -1855.1104
v  -16.2920 472.4409 -1748.0059
v  -135.2959 472.4409 -1652.8027
v  -163.1768 472.4409 -1432.8809
v  -275.3740 472.4409 -1253.3643
v  -449.2813 472.4409 -1163.6055
v  -886.8535 472.4409 -804.5713
v  -1363.6953 472.4409 -445.5381
v  -1538.0439 472.4409 -342.4854
v  -1579.1045 472.4409 -238.6289
v  -1703.2549 472.4409 -178.1338
v  -1836.7305 472.4409 -177.9033
v  -1952.6406 472.4409 -99.1523
v  -2109.3623 472.4409 162.7793
v  -2269.5713 472.4409 500.7559
v  -2278.1924 472.4409 974.8857
v  -2088.5400 472.4409 1224.8809
v  -1950.6113 472.4409 1457.6348
v  -1778.2002 472.4409 1543.8398
v  -1551.2363 472.4409 1541.7949
v  -1386.1699 472.4409 1417.9941
v  -1207.3477 472.4409 1218.5391
v  -1090.4248 472.4409 1156.6387
v  -897.8477 472.4409 1149.7617
v  -780.9248 472.4409 1273.5605
v  -705.2695 472.4409 1534.9160
v  -733.2275 472.4409 1846.7207
v  -976.3936 472.4409 1982.8945
v  -1161.2002 472.4409 2187.1543
v  -1346.0059 472.4409 2449.7734
v  -1336.2793 472.4409 2712.3926
v  -1021.7598 472.4409 3165.0605
v  -638.2178 472.4409 3470.1504
v  -1073.1738 472.4409 -142.9150
v  -1071.8965 7.0651 -140.2861
# 208 vertices

vn 0.0000 1.0000 -0.0000
vn -0.0434 0.0000 -0.9991
vn -0.7835 0.0000 -0.6214
vn -0.5087 0.0000 -0.8609
vn 0.2707 0.0000 -0.9627
vn 0.5145 0.0000 -0.8575
vn 0.1081 0.0000 -0.9941
vn 0.1135 0.0000 -0.9935
vn -0.3786 0.0000 -0.9255
vn -0.8423 0.0000 -0.5391
vn -0.9999 0.0000 -0.0110
vn -0.8595 0.0000 0.5111
vn -0.6508 0.0000 0.7593
vn -0.4167 0.0000 0.9091
vn -0.1504 0.0000 0.9886
vn 0.4347 0.0000 0.9006
vn 0.7241 0.0000 0.6897
vn 0.4472 0.0000 0.8944
vn -0.2026 0.0000 0.9793
vn -0.8031 0.0000 0.5958
vn -0.4921 0.0000 0.8706
vn 0.3644 0.0000 0.9312
vn 0.5882 0.0000 0.8087
vn -0.0830 0.0000 0.9965
vn -0.5547 0.0000 0.8321
vn -0.9864 0.0000 0.1644
vn -0.9778 0.0000 -0.2095
vn -0.8099 0.0000 -0.5865
vn -0.4235 0.0001 -0.9059
vn -0.4235 -0.0001 -0.9059
vn -0.4572 0.0001 -0.8894
vn -0.4572 -0.0001 -0.8894
vn -0.5251 0.0000 -0.8510
vn -0.6247 0.0000 -0.7809
vn -0.7071 0.0000 -0.7071
vn -0.6139 0.0000 -0.7894
vn 0.1821 0.0000 -0.9833
vn -0.4360 0.0000 -0.9000
vn -0.9354 0.0000 -0.3537
vn -0.8437 0.0000 -0.5369
vn -0.8198 0.0000 -0.5726
vn -0.9701 0.0000 0.2425
vn -0.4741 0.0000 0.8805
vn -0.0278 0.0000 0.9996
vn 0.1699 0.0000 0.9855
vn 0.2822 0.0000 0.9594
vn -0.4472 0.0000 0.8944
vn -0.0384 0.0000 0.9993
vn 0.5647 0.0000 0.8253
vn -0.0499 0.0000 0.9988
vn -0.6839 0.0000 0.7295
vn -0.2124 0.0000 0.9772
vn -0.0303 0.0000 0.9995
vn -0.5882 0.0000 0.8087
vn -0.9721 0.0000 0.2346
vn -0.8795 0.0000 0.4758
vn 0.9470 0.0000 0.3212
vn 0.8247 0.0000 -0.5655
vn 0.7606 0.0000 -0.6493
vn 0.3786 0.0000 -0.9255
vn -0.3881 0.0000 -0.9216
vn -0.1560 0.0000 -0.9878
vn 0.4356 0.0000 -0.9002
vn 0.2873 0.0000 -0.9578
vn -0.3644 0.0000 -0.9312
vn -0.3417 0.0000 -0.9398
vn 0.3328 0.0000 -0.9430
vn 0.9786 0.0000 -0.2056
vn 0.9181 0.0000 0.3964
vn 0.7494 0.0000 0.6621
vn 0.4679 0.0000 0.8838
vn 0.6247 0.0000 0.7809
vn 0.9921 0.0000 0.1258
vn 0.8480 0.0000 0.5300
vn 0.4586 0.0000 0.8886
vn 0.6343 0.0000 0.7731
vn 0.6015 0.0000 0.7989
vn 0.5088 0.0000 0.8609
vn 0.9300 0.0000 0.3677
vn 0.4380 0.0000 0.8990
vn 0.0017 0.0000 1.0000
vn 0.5620 0.0000 0.8271
vn 0.8581 0.0000 0.5134
vn 0.9036 0.0000 0.4283
vn 0.9998 0.0000 0.0182
vn 0.7967 0.0000 -0.6044
vn 0.8603 0.0000 -0.5098
vn 0.4472 0.0000 -0.8944
vn -0.0090 0.0000 -1.0000
vn -0.6000 0.0000 -0.8000
vn -0.7446 0.0000 -0.6675
vn -0.4679 0.0000 -0.8838
vn -0.0357 0.0000 -0.9994
vn 0.7270 0.0000 -0.6866
vn 0.9606 0.0000 -0.2781
vn 0.9960 0.0000 0.0893
vn 0.4886 0.0000 0.8725
vn 0.7415 0.0000 0.6709
vn 0.8178 0.0000 0.5755
vn 0.9993 0.0000 -0.0370
vn 0.8212 0.0000 -0.5706
vn 0.6225 0.0000 -0.7826
vn 0.3937 0.0000 -0.9193
vn -0.7126 -0.6920 0.1156
vn 0.5311 -0.6920 -0.4890
vn -0.3090 -0.7073 -0.6358
vn -0.4253 0.6547 0.6249
vn 0.7541 0.6547 0.0516
# 108 vertex normals

vt 0.0000 0.0000 0.5465
# 1 texture coords

g Cavern5_Collision
s 1
f 1/1/1 2/1/1 3/1/1 
f 3/1/1 4/1/1 1/1/1 
f 5/1/1 6/1/1 7/1/1 
f 7/1/1 8/1/1 5/1/1 
f 7/1/1 9/1/1 8/1/1 
f 5/1/1 8/1/1 10/1/1 
f 10/1/1 1/1/1 5/1/1 
f 11/1/1 12/1/1 13/1/1 
f 13/1/1 8/1/1 11/1/1 
f 12/1/1 14/1/1 13/1/1 
f 10/1/1 13/1/1 15/1/1 
f 15/1/1 16/1/1 10/1/1 
f 16/1/1 17/1/1 10/1/1 
f 8/1/1 13/1/1 10/1/1 
f 10/1/1 18/1/1 19/1/1 
f 19/1/1 1/1/1 10/1/1 
f 20/1/1 21/1/1 22/1/1 
f 22/1/1 23/1/1 20/1/1 
f 21/1/1 24/1/1 22/1/1 
f 25/1/1 18/1/1 23/1/1 
f 23/1/1 22/1/1 25/1/1 
f 26/1/1 27/1/1 28/1/1 
f 28/1/1 29/1/1 26/1/1 
f 27/1/1 30/1/1 28/1/1 
f 31/1/1 29/1/1 28/1/1 
f 28/1/1 32/1/1 31/1/1 
f 29/1/1 31/1/1 33/1/1 
f 33/1/1 34/1/1 29/1/1 
f 35/1/1 36/1/1 37/1/1 
f 37/1/1 33/1/1 35/1/1 
f 38/1/1 39/1/1 34/1/1 
f 34/1/1 37/1/1 38/1/1 
f 33/1/1 37/1/1 34/1/1 
f 40/1/1 41/1/1 42/1/1 
f 42/1/1 34/1/1 40/1/1 
f 41/1/1 43/1/1 42/1/1 
f 44/1/1 45/1/1 46/1/1 
f 46/1/1 42/1/1 44/1/1 
f 42/1/1 46/1/1 47/1/1 
f 47/1/1 34/1/1 42/1/1 
f 48/1/1 49/1/1 50/1/1 
f 50/1/1 51/1/1 48/1/1 
f 52/1/1 53/1/1 54/1/1 
f 54/1/1 55/1/1 52/1/1 
f 53/1/1 56/1/1 54/1/1 
f 50/1/1 55/1/1 54/1/1 
f 54/1/1 47/1/1 50/1/1 
f 54/1/1 57/1/1 58/1/1 
f 58/1/1 59/1/1 54/1/1 
f 58/1/1 60/1/1 59/1/1 
f 54/1/1 59/1/1 47/1/1 
f 47/1/1 46/1/1 51/1/1 
f 51/1/1 50/1/1 47/1/1 
f 47/1/1 61/1/1 62/1/1 
f 62/1/1 63/1/1 47/1/1 
f 47/1/1 63/1/1 64/1/1 
f 64/1/1 34/1/1 47/1/1 
f 64/1/1 65/1/1 66/1/1 
f 66/1/1 34/1/1 64/1/1 
f 34/1/1 66/1/1 67/1/1 
f 67/1/1 68/1/1 34/1/1 
f 69/1/1 70/1/1 71/1/1 
f 71/1/1 72/1/1 69/1/1 
f 68/1/1 67/1/1 72/1/1 
f 72/1/1 71/1/1 68/1/1 
f 34/1/1 68/1/1 73/1/1 
f 73/1/1 29/1/1 34/1/1 
f 74/1/1 75/1/1 76/1/1 
f 76/1/1 68/1/1 74/1/1 
f 77/1/1 68/1/1 76/1/1 
f 76/1/1 78/1/1 77/1/1 
f 79/1/1 80/1/1 81/1/1 
f 81/1/1 73/1/1 79/1/1 
f 81/1/1 82/1/1 73/1/1 
f 73/1/1 68/1/1 77/1/1 
f 77/1/1 79/1/1 73/1/1 
f 73/1/1 83/1/1 84/1/1 
f 84/1/1 29/1/1 73/1/1 
f 85/1/1 83/1/1 73/1/1 
f 73/1/1 25/1/1 85/1/1 
f 86/1/1 87/1/1 88/1/1 
f 88/1/1 73/1/1 86/1/1 
f 87/1/1 89/1/1 88/1/1 
f 90/1/1 88/1/1 91/1/1 
f 91/1/1 92/1/1 90/1/1 
f 73/1/1 88/1/1 90/1/1 
f 90/1/1 25/1/1 73/1/1 
f 90/1/1 93/1/1 94/1/1 
f 94/1/1 25/1/1 90/1/1 
f 25/1/1 94/1/1 19/1/1 
f 19/1/1 18/1/1 25/1/1 
f 95/1/1 1/1/1 19/1/1 
f 19/1/1 96/1/1 95/1/1 
f 95/1/1 97/1/1 98/1/1 
f 98/1/1 99/1/1 95/1/1 
f 98/1/1 100/1/1 99/1/1 
f 2/1/1 1/1/1 95/1/1 
f 95/1/1 99/1/1 2/1/1 
f 101/1/1 2/1/1 99/1/1 
f 99/1/1 102/1/1 101/1/1 
s off
f 3/1/2 2/1/2 103/1/2 
f 103/1/2 104/1/2 3/1/2 
f 104/1/3 105/1/3 4/1/3 
f 4/1/3 3/1/3 104/1/3 
f 106/1/4 1/1/4 4/1/4 
f 4/1/4 105/1/4 106/1/4 
f 106/1/5 107/1/5 5/1/5 
f 5/1/5 1/1/5 106/1/5 
f 108/1/6 6/1/6 5/1/6 
f 5/1/6 107/1/6 108/1/6 
f 108/1/7 109/1/7 7/1/7 
f 7/1/7 6/1/7 108/1/7 
f 9/1/8 7/1/8 109/1/8 
f 109/1/8 110/1/8 9/1/8 
f 111/1/9 8/1/9 9/1/9 
f 9/1/9 110/1/9 111/1/9 
f 111/1/10 112/1/10 11/1/10 
f 11/1/10 8/1/10 111/1/10 
f 112/1/11 113/1/11 12/1/11 
f 12/1/11 11/1/11 112/1/11 
f 113/1/12 114/1/12 14/1/12 
f 14/1/12 12/1/12 113/1/12 
f 114/1/13 115/1/13 13/1/13 
f 13/1/13 14/1/13 114/1/13 
f 15/1/14 13/1/14 115/1/14 
f 115/1/14 116/1/14 15/1/14 
f 117/1/15 16/1/15 15/1/15 
f 15/1/15 116/1/15 117/1/15 
f 117/1/16 118/1/16 17/1/16 
f 17/1/16 16/1/16 117/1/16 
f 119/1/17 10/1/17 17/1/17 
f 17/1/17 118/1/17 119/1/17 
f 119/1/18 120/1/18 18/1/18 
f 18/1/18 10/1/18 119/1/18 
f 23/1/19 18/1/19 120/1/19 
f 120/1/19 121/1/19 23/1/19 
f 121/1/20 122/1/20 20/1/20 
f 20/1/20 23/1/20 121/1/20 
f 122/1/21 123/1/21 21/1/21 
f 21/1/21 20/1/21 122/1/21 
f 123/1/22 124/1/22 24/1/22 
f 24/1/22 21/1/22 123/1/22 
f 124/1/23 125/1/23 22/1/23 
f 22/1/23 24/1/23 124/1/23 
f 25/1/24 22/1/24 125/1/24 
f 125/1/24 126/1/24 25/1/24 
f 85/1/25 25/1/25 126/1/25 
f 126/1/25 127/1/25 85/1/25 
f 128/1/26 83/1/26 85/1/26 
f 85/1/26 127/1/26 128/1/26 
f 128/1/27 129/1/27 84/1/27 
f 84/1/27 83/1/27 128/1/27 
f 130/1/28 29/1/28 84/1/28 
f 84/1/28 129/1/28 130/1/28 
f 131/1/29 132/1/29 133/1/29 
f 133/1/29 130/1/29 131/1/29 
f 26/1/30 29/1/30 130/1/30 
f 130/1/30 133/1/30 26/1/30 
f 134/1/31 135/1/31 133/1/31 
f 133/1/31 132/1/31 134/1/31 
f 30/1/32 27/1/32 133/1/32 
f 133/1/32 135/1/32 30/1/32 
f 28/1/33 30/1/33 135/1/33 
f 135/1/33 136/1/33 28/1/33 
f 136/1/34 137/1/34 32/1/34 
f 32/1/34 28/1/34 136/1/34 
f 138/1/35 31/1/35 32/1/35 
f 32/1/35 137/1/35 138/1/35 
f 138/1/36 139/1/36 33/1/36 
f 33/1/36 31/1/36 138/1/36 
f 33/1/37 139/1/37 140/1/37 
f 140/1/37 35/1/37 33/1/37 
f 35/1/38 140/1/38 141/1/38 
f 141/1/38 36/1/38 35/1/38 
f 141/1/39 142/1/39 37/1/39 
f 37/1/39 36/1/39 141/1/39 
f 38/1/40 37/1/40 142/1/40 
f 142/1/40 143/1/40 38/1/40 
f 143/1/41 144/1/41 39/1/41 
f 39/1/41 38/1/41 143/1/41 
f 144/1/42 145/1/42 34/1/42 
f 34/1/42 39/1/42 144/1/42 
f 146/1/43 40/1/43 34/1/43 
f 34/1/43 145/1/43 146/1/43 
f 147/1/44 41/1/44 40/1/44 
f 40/1/44 146/1/44 147/1/44 
f 148/1/45 43/1/45 41/1/45 
f 41/1/45 147/1/45 148/1/45 
f 148/1/46 149/1/46 42/1/46 
f 42/1/46 43/1/46 148/1/46 
f 150/1/47 44/1/47 42/1/47 
f 42/1/47 149/1/47 150/1/47 
f 44/1/48 150/1/48 151/1/48 
f 151/1/48 45/1/48 44/1/48 
f 152/1/49 46/1/49 45/1/49 
f 45/1/49 151/1/49 152/1/49 
f 51/1/50 46/1/50 152/1/50 
f 152/1/50 153/1/50 51/1/50 
f 154/1/51 48/1/51 51/1/51 
f 51/1/51 153/1/51 154/1/51 
f 155/1/52 49/1/52 48/1/52 
f 48/1/52 154/1/52 155/1/52 
f 49/1/53 155/1/53 156/1/53 
f 156/1/53 50/1/53 49/1/53 
f 157/1/54 55/1/54 50/1/54 
f 50/1/54 156/1/54 157/1/54 
f 158/1/55 52/1/55 55/1/55 
f 55/1/55 157/1/55 158/1/55 
f 159/1/56 53/1/56 52/1/56 
f 52/1/56 158/1/56 159/1/56 
f 160/1/57 54/1/57 56/1/57 
f 56/1/57 161/1/57 160/1/57 
f 162/1/58 57/1/58 54/1/58 
f 54/1/58 160/1/58 162/1/58 
f 162/1/59 163/1/59 58/1/59 
f 58/1/59 57/1/59 162/1/59 
f 164/1/60 60/1/60 58/1/60 
f 58/1/60 163/1/60 164/1/60 
f 60/1/61 164/1/61 165/1/61 
f 165/1/61 59/1/61 60/1/61 
f 59/1/62 165/1/62 166/1/62 
f 166/1/62 47/1/62 59/1/62 
f 167/1/63 61/1/63 47/1/63 
f 47/1/63 166/1/63 167/1/63 
f 61/1/64 167/1/64 168/1/64 
f 168/1/64 62/1/64 61/1/64 
f 62/1/65 168/1/65 169/1/65 
f 169/1/65 63/1/65 62/1/65 
f 170/1/66 64/1/66 63/1/66 
f 63/1/66 169/1/66 170/1/66 
f 64/1/67 170/1/67 171/1/67 
f 171/1/67 65/1/67 64/1/67 
f 65/1/68 171/1/68 172/1/68 
f 172/1/68 66/1/68 65/1/68 
f 66/1/69 172/1/69 173/1/69 
f 173/1/69 67/1/69 66/1/69 
f 174/1/70 72/1/70 67/1/70 
f 67/1/70 173/1/70 174/1/70 
f 174/1/71 175/1/71 69/1/71 
f 69/1/71 72/1/71 174/1/71 
f 69/1/72 175/1/72 176/1/72 
f 176/1/72 70/1/72 69/1/72 
f 176/1/73 177/1/73 71/1/73 
f 71/1/73 70/1/73 176/1/73 
f 71/1/74 177/1/74 178/1/74 
f 178/1/74 68/1/74 71/1/74 
f 178/1/75 179/1/75 74/1/75 
f 74/1/75 68/1/75 178/1/75 
f 180/1/76 75/1/76 74/1/76 
f 74/1/76 179/1/76 180/1/76 
f 180/1/77 181/1/77 76/1/77 
f 76/1/77 75/1/77 180/1/77 
f 182/1/78 78/1/78 76/1/78 
f 76/1/78 181/1/78 182/1/78 
f 77/1/79 78/1/79 182/1/79 
f 182/1/79 183/1/79 77/1/79 
f 79/1/80 77/1/80 183/1/80 
f 183/1/80 184/1/80 79/1/80 
f 184/1/81 185/1/81 80/1/81 
f 80/1/81 79/1/81 184/1/81 
f 186/1/82 81/1/82 80/1/82 
f 80/1/82 185/1/82 186/1/82 
f 82/1/83 81/1/83 186/1/83 
f 186/1/83 187/1/83 82/1/83 
f 188/1/84 73/1/84 82/1/84 
f 82/1/84 187/1/84 188/1/84 
f 188/1/85 189/1/85 86/1/85 
f 86/1/85 73/1/85 188/1/85 
f 189/1/86 190/1/86 87/1/86 
f 87/1/86 86/1/86 189/1/86 
f 190/1/87 191/1/87 89/1/87 
f 89/1/87 87/1/87 190/1/87 
f 192/1/88 88/1/88 89/1/88 
f 89/1/88 191/1/88 192/1/88 
f 88/1/89 192/1/89 193/1/89 
f 193/1/89 91/1/89 88/1/89 
f 193/1/90 194/1/90 92/1/90 
f 92/1/90 91/1/90 193/1/90 
f 194/1/91 195/1/91 90/1/91 
f 90/1/91 92/1/91 194/1/91 
f 195/1/92 196/1/92 93/1/92 
f 93/1/92 90/1/92 195/1/92 
f 196/1/93 197/1/93 94/1/93 
f 94/1/93 93/1/93 196/1/93 
f 94/1/94 197/1/94 198/1/94 
f 198/1/94 19/1/94 94/1/94 
f 198/1/95 199/1/95 96/1/95 
f 96/1/95 19/1/95 198/1/95 
f 96/1/96 199/1/96 200/1/96 
f 200/1/96 95/1/96 96/1/96 
f 97/1/97 95/1/97 200/1/97 
f 200/1/97 201/1/97 97/1/97 
f 97/1/98 201/1/98 202/1/98 
f 202/1/98 98/1/98 97/1/98 
f 202/1/99 203/1/99 100/1/99 
f 100/1/99 98/1/99 202/1/99 
f 203/1/100 204/1/100 99/1/100 
f 99/1/100 100/1/100 203/1/100 
f 102/1/101 99/1/101 204/1/101 
f 204/1/101 205/1/101 102/1/101 
f 205/1/102 206/1/102 101/1/102 
f 101/1/102 102/1/102 205/1/102 
f 101/1/103 206/1/103 103/1/103 
f 103/1/103 2/1/103 101/1/103 
f 131/1/104 207/1/104 132/1/104 
f 132/1/105 207/1/105 134/1/105 
f 26/1/106 208/1/106 27/1/106 
f 133/1/107 208/1/107 26/1/107 
f 27/1/108 208/1/108 133/1/108 
# 309 faces

