# 3ds Max Wavefront OBJ Exporter v0.97b - (c)2007 guruware
# File Created: 08.03.2010 15:35:39

mtllib Cave1_with_Collision.mtl

#
# object Line01
#

v  1535.6847 -50.5727 83.6540
v  1537.3903 -50.5727 -129.7407
v  1341.3700 -50.5727 -143.9160
v  -1521.2699 -50.5727 -80.6408
v  -1520.9271 -50.5727 201.0423
v  -1183.8705 -50.5727 195.1729
v  -1173.3706 -50.5727 -63.0812
v  -952.8714 -50.5727 171.6952
v  -947.6214 -50.5727 -115.9059
v  -774.3721 -50.5727 -180.4694
v  -758.6221 -50.5727 253.8670
v  -559.1229 -50.5727 -215.6859
v  -422.6234 -50.5727 -215.8752
v  -622.1227 -50.5727 341.9081
v  -501.3731 -50.5727 365.3857
v  -207.3742 -50.5727 -158.4800
v  -322.8738 -50.5727 441.6880
v  -144.3745 -50.5727 471.0351
v  2.6250 -50.5727 -168.1832
v  60.3748 -50.5727 417.8001
v  175.8743 -50.5727 318.9569
v  312.3738 -50.5727 170.5051
v  118.1246 -50.5727 -203.9444
v  270.3740 -50.5727 -274.6262
v  459.3733 -50.5727 152.3791
v  433.1234 -50.5727 -284.7662
v  574.8728 -50.5727 130.6093
v  674.6224 -50.5727 89.5235
v  700.8724 -50.5727 -234.3613
v  900.3716 -50.5727 77.7846
v  947.6214 -50.5727 -176.7801
v  1026.3711 -50.5727 71.9152
v  1141.8707 -50.5727 -162.6320
v  1194.3705 -50.5727 71.9152
v  1330.8700 -50.5727 83.6540
v  1535.6847 67.5375 83.6540
v  1537.3903 67.5375 -129.7407
v  1341.3700 67.5375 -143.9160
v  1141.8707 67.5375 -162.6320
v  947.6214 67.5375 -176.7801
v  700.8724 67.5375 -234.3613
v  433.1234 67.5375 -284.7662
v  270.3740 67.5375 -274.6262
v  118.1246 67.5375 -203.9444
v  2.6250 67.5375 -168.1832
v  -207.3742 67.5375 -158.4800
v  -422.6234 67.5375 -215.8752
v  -559.1229 67.5375 -215.6859
v  -774.3721 67.5375 -180.4694
v  -947.6214 67.5375 -115.9059
v  -1173.3706 67.5375 -63.0812
v  -1521.2699 67.5375 -80.6408
v  -1520.9271 67.5375 201.0423
v  -1183.8705 67.5375 195.1729
v  -952.8714 67.5375 171.6952
v  -758.6221 67.5375 253.8670
v  -622.1227 67.5375 341.9081
v  -501.3731 67.5375 365.3857
v  -322.8738 67.5375 441.6880
v  -144.3745 67.5375 471.0351
v  60.3748 67.5375 417.8001
v  175.8743 67.5375 318.9569
v  312.3738 67.5375 170.5051
v  459.3733 67.5375 152.3791
v  574.8728 67.5375 130.6093
v  674.6224 67.5375 89.5235
v  900.3716 67.5375 77.7846
v  1026.3711 67.5375 71.9152
v  1194.3705 67.5375 71.9152
v  1330.8700 67.5375 83.6540
# 70 vertices

vn 0.0000 1.0000 -0.0000
vn -1.0000 0.0000 -0.0080
vn -0.0721 0.0000 0.9974
vn -0.0934 0.0000 0.9956
vn -0.0726 0.0000 0.9974
vn -0.2273 0.0000 0.9738
vn -0.1850 0.0000 0.9827
vn 0.0622 0.0000 0.9981
vn 0.4211 0.0000 0.9070
vn 0.2958 0.0000 0.9553
vn 0.0462 0.0000 0.9989
vn -0.2576 0.0000 0.9662
vn 0.0014 0.0000 1.0000
vn 0.1615 0.0000 0.9869
vn 0.3492 0.0000 0.9370
vn 0.2278 0.0000 0.9737
vn -0.0504 0.0000 0.9987
vn 1.0000 0.0000 -0.0012
vn -0.0174 0.0000 -0.9998
vn -0.1011 0.0000 -0.9949
vn 0.3896 0.0000 -0.9210
vn 0.5420 0.0000 -0.8404
vn 0.1909 0.0000 -0.9816
vn 0.3931 0.0000 -0.9195
vn 0.1622 0.0000 -0.9868
vn -0.2516 0.0000 -0.9678
vn -0.6502 0.0000 -0.7598
vn -0.7361 0.0000 -0.6769
vn -0.1224 0.0000 -0.9925
vn -0.1852 0.0000 -0.9827
vn -0.3808 0.0000 -0.9246
vn -0.0519 0.0000 -0.9987
vn -0.0465 0.0000 -0.9989
vn 0.0000 0.0000 -1.0000
vn 0.0857 0.0000 -0.9963
# 35 vertex normals

g Line01
usemtl wire_028028177
s 1
f 1//1 2//1 3//1 
f 4//1 5//1 6//1 
f 7//1 4//1 6//1 
f 7//1 6//1 8//1 
f 9//1 7//1 8//1 
f 10//1 9//1 8//1 
f 10//1 8//1 11//1 
f 12//1 10//1 11//1 
f 13//1 12//1 11//1 
f 13//1 11//1 14//1 
f 13//1 14//1 15//1 
f 16//1 13//1 15//1 
f 16//1 15//1 17//1 
f 16//1 17//1 18//1 
f 19//1 16//1 18//1 
f 19//1 18//1 20//1 
f 19//1 20//1 21//1 
f 19//1 21//1 22//1 
f 23//1 19//1 22//1 
f 24//1 23//1 22//1 
f 24//1 22//1 25//1 
f 26//1 24//1 25//1 
f 26//1 25//1 27//1 
f 26//1 27//1 28//1 
f 29//1 26//1 28//1 
f 29//1 28//1 30//1 
f 31//1 29//1 30//1 
f 31//1 30//1 32//1 
f 33//1 31//1 32//1 
f 33//1 32//1 34//1 
f 3//1 33//1 34//1 
f 3//1 34//1 35//1 
f 1//1 3//1 35//1 
s off
f 1//2 36//2 37//2 
f 37//2 2//2 1//2 
f 3//3 2//3 37//3 
f 37//3 38//3 3//3 
f 33//4 3//4 38//4 
f 38//4 39//4 33//4 
f 31//5 33//5 39//5 
f 39//5 40//5 31//5 
f 29//6 31//6 40//6 
f 40//6 41//6 29//6 
f 26//7 29//7 41//7 
f 41//7 42//7 26//7 
f 24//8 26//8 42//8 
f 42//8 43//8 24//8 
f 23//9 24//9 43//9 
f 43//9 44//9 23//9 
f 19//10 23//10 44//10 
f 44//10 45//10 19//10 
f 16//11 19//11 45//11 
f 45//11 46//11 16//11 
f 13//12 16//12 46//12 
f 46//12 47//12 13//12 
f 12//13 13//13 47//13 
f 47//13 48//13 12//13 
f 10//14 12//14 48//14 
f 48//14 49//14 10//14 
f 9//15 10//15 49//15 
f 49//15 50//15 9//15 
f 7//16 9//16 50//16 
f 50//16 51//16 7//16 
f 4//17 7//17 51//17 
f 51//17 52//17 4//17 
f 5//18 4//18 52//18 
f 52//18 53//18 5//18 
f 6//19 5//19 53//19 
f 53//19 54//19 6//19 
f 8//20 6//20 54//20 
f 54//20 55//20 8//20 
f 11//21 8//21 55//21 
f 55//21 56//21 11//21 
f 14//22 11//22 56//22 
f 56//22 57//22 14//22 
f 15//23 14//23 57//23 
f 57//23 58//23 15//23 
f 17//24 15//24 58//24 
f 58//24 59//24 17//24 
f 18//25 17//25 59//25 
f 59//25 60//25 18//25 
f 20//26 18//26 60//26 
f 60//26 61//26 20//26 
f 21//27 20//27 61//27 
f 61//27 62//27 21//27 
f 22//28 21//28 62//28 
f 62//28 63//28 22//28 
f 25//29 22//29 63//29 
f 63//29 64//29 25//29 
f 27//30 25//30 64//30 
f 64//30 65//30 27//30 
f 28//31 27//31 65//31 
f 65//31 66//31 28//31 
f 30//32 28//32 66//32 
f 66//32 67//32 30//32 
f 32//33 30//33 67//33 
f 67//33 68//33 32//33 
f 34//34 32//34 68//34 
f 68//34 69//34 34//34 
f 35//35 34//35 69//35 
f 69//35 70//35 35//35 
f 1//34 35//34 70//34 
f 70//34 36//34 1//34 
# 103 faces

