# 3ds Max Wavefront OBJ Exporter v0.97b - (c)2007 guruware
# File Created: 14.04.2010 15:24:38

#
# object Collision_Mesh
#

v  -1.4634 -1.3667 -35.8380
v  -0.8989 -1.3667 -37.7583
v  -7.8145 -1.3667 -37.7013
v  -14.0645 -1.3667 -25.4699
v  -5.9952 -1.3667 37.7898
v  0.0041 -1.3667 37.8486
v  -7.6793 -1.3667 24.2218
v  -13.3243 -1.3667 27.5045
v  -14.4887 -1.3667 18.5622
v  -10.3957 -1.3667 15.5060
v  -14.3073 -1.3667 12.3366
v  -10.5090 -1.3667 10.8651
v  -17.5164 -1.3667 10.1859
v  -9.1508 -1.3667 8.2617
v  -1.7933 -1.3667 2.0360
v  -2.1860 -1.3667 -0.1602
v  -3.7988 -1.3667 -1.4680
v  -2.6988 -1.3667 3.6207
v  -6.5473 -1.3667 4.4131
v  -6.4759 -1.3667 -0.3791
v  -10.8381 -1.3667 2.8739
v  -12.5294 -1.3667 1.0854
v  -20.4594 -1.3667 4.6394
v  -19.9818 -1.3667 -1.4729
v  -11.8749 -1.3667 -4.4957
v  -17.3199 -1.3667 -10.9812
v  -8.9603 -1.3667 -11.9925
v  -16.1334 -1.3667 -17.9991
v  -8.6893 -1.3667 -20.3926
v  -3.2699 -1.3667 -30.1476
v  -1.4634 3.6358 -35.8380
v  -0.8989 3.6358 -37.7583
v  -7.8145 3.6358 -37.7013
v  -14.0645 3.6358 -25.4699
v  -16.1334 3.6358 -17.9991
v  -17.3199 3.6358 -10.9812
v  -19.9818 3.6358 -1.4729
v  -20.4594 3.6358 4.6394
v  -17.5164 3.6358 10.1859
v  -14.3073 3.6358 12.3366
v  -14.4887 3.6358 18.5622
v  -13.3243 3.6358 27.5045
v  -5.9952 3.6358 37.7898
v  0.0041 3.6358 37.8486
v  -7.6793 3.6358 24.2218
v  -10.3957 3.6358 15.5060
v  -10.5090 3.6358 10.8651
v  -9.1508 3.6358 8.2617
v  -6.5473 3.6358 4.4131
v  -2.6988 3.6358 3.6207
v  -1.7933 3.6358 2.0360
v  -2.1860 3.6358 -0.1602
v  -3.7988 3.6358 -1.4680
v  -6.4759 3.6358 -0.3791
v  -10.8381 3.6358 2.8739
v  -12.5294 3.6358 1.0854
v  -11.8749 3.6358 -4.4957
v  -8.9603 3.6358 -11.9925
v  -8.6893 3.6358 -20.3926
v  -3.2699 3.6358 -30.1476
# 60 vertices

vn 0.0000 1.0000 -0.0000
vn -0.9594 0.0000 -0.2820
vn 0.8905 0.0000 0.4550
vn 0.9637 0.0000 0.2669
vn 0.9860 0.0000 0.1667
vn 0.9630 0.0000 0.2696
vn 0.9970 0.0000 0.0779
vn 0.8834 0.0000 -0.4687
vn 0.5567 0.0000 -0.8307
vn 0.9996 0.0000 0.0291
vn 0.9916 0.0000 -0.1291
vn 0.8144 0.0000 -0.5803
vn -0.8711 0.0000 0.4912
vn -0.9547 0.0000 0.2975
vn -0.9997 0.0000 0.0244
vn -0.8866 0.0000 -0.4625
vn -0.8283 0.0000 -0.5603
vn -0.2017 0.0000 -0.9795
vn -0.8683 0.0000 -0.4961
vn -0.9844 0.0000 0.1760
vn -0.6298 0.0000 0.7767
vn 0.3768 0.0000 0.9263
vn 0.5978 0.0000 0.8016
vn -0.7266 0.0000 0.6871
vn -0.9932 0.0000 -0.1165
vn -0.9320 0.0000 -0.3624
vn -0.9995 0.0000 -0.0322
vn -0.8742 0.0000 -0.4856
vn -0.9531 0.0000 -0.3026
# 29 vertex normals

g Collision_Mesh
s 1
f 1//1 2//1 3//1 
f 1//1 3//1 4//1 
f 5//1 6//1 7//1 
f 8//1 5//1 7//1 
f 9//1 8//1 7//1 
f 9//1 7//1 10//1 
f 11//1 9//1 10//1 
f 11//1 10//1 12//1 
f 13//1 11//1 12//1 
f 13//1 12//1 14//1 
f 15//1 16//1 17//1 
f 18//1 15//1 17//1 
f 19//1 18//1 17//1 
f 19//1 17//1 20//1 
f 19//1 20//1 21//1 
f 14//1 19//1 21//1 
f 13//1 14//1 21//1 
f 13//1 21//1 22//1 
f 23//1 13//1 22//1 
f 24//1 23//1 22//1 
f 24//1 22//1 25//1 
f 26//1 24//1 25//1 
f 26//1 25//1 27//1 
f 28//1 26//1 27//1 
f 28//1 27//1 29//1 
f 4//1 28//1 29//1 
f 4//1 29//1 30//1 
f 1//1 4//1 30//1 
s off
f 1//2 31//2 32//2 
f 32//2 2//2 1//2 
f 4//3 3//3 33//3 
f 33//3 34//3 4//3 
f 28//4 4//4 34//4 
f 34//4 35//4 28//4 
f 26//5 28//5 35//5 
f 35//5 36//5 26//5 
f 24//6 26//6 36//6 
f 36//6 37//6 24//6 
f 23//7 24//7 37//7 
f 37//7 38//7 23//7 
f 13//8 23//8 38//8 
f 38//8 39//8 13//8 
f 11//9 13//9 39//9 
f 39//9 40//9 11//9 
f 9//10 11//10 40//10 
f 40//10 41//10 9//10 
f 8//11 9//11 41//11 
f 41//11 42//11 8//11 
f 5//12 8//12 42//12 
f 42//12 43//12 5//12 
f 7//13 6//13 44//13 
f 44//13 45//13 7//13 
f 10//14 7//14 45//14 
f 45//14 46//14 10//14 
f 12//15 10//15 46//15 
f 46//15 47//15 12//15 
f 14//16 12//16 47//16 
f 47//16 48//16 14//16 
f 19//17 14//17 48//17 
f 48//17 49//17 19//17 
f 18//18 19//18 49//18 
f 49//18 50//18 18//18 
f 15//19 18//19 50//19 
f 50//19 51//19 15//19 
f 16//20 15//20 51//20 
f 51//20 52//20 16//20 
f 17//21 16//21 52//21 
f 52//21 53//21 17//21 
f 20//22 17//22 53//22 
f 53//22 54//22 20//22 
f 21//23 20//23 54//23 
f 54//23 55//23 21//23 
f 22//24 21//24 55//24 
f 55//24 56//24 22//24 
f 25//25 22//25 56//25 
f 56//25 57//25 25//25 
f 27//26 25//26 57//26 
f 57//26 58//26 27//26 
f 29//27 27//27 58//27 
f 58//27 59//27 29//27 
f 30//28 29//28 59//28 
f 59//28 60//28 30//28 
f 1//29 30//29 60//29 
f 60//29 31//29 1//29 
# 84 faces

