# 3ds Max Wavefront OBJ Exporter v0.97b - (c)2007 guruware
# File Created: 15.04.2010 23:22:04

#
# object Collision_Mesh
#

v  372.9078 -494.7208 -3643.6799
v  430.2327 -494.7208 -3838.6978
v  -272.0803 -494.7208 -3832.9109
v  -906.8060 -494.7208 -2590.7451
v  -87.3211 -494.7208 3833.6450
v  521.9428 -494.7208 3839.6223
v  -258.3552 -494.7208 2455.7378
v  -831.6334 -494.7208 2789.1116
v  -949.8862 -494.7208 1880.9685
v  -534.2223 -494.7208 1570.5950
v  -931.4636 -494.7208 1248.7271
v  -545.7281 -494.7208 1099.2876
v  -1257.3694 -494.7208 1030.3091
v  -407.7944 -494.7208 834.8919
v  339.4030 -494.7208 202.6390
v  299.5250 -494.7208 -20.3919
v  135.7342 -494.7208 -153.2080
v  247.4473 -494.7208 363.5730
v  -143.3875 -494.7208 444.0457
v  -136.1445 -494.7208 -42.6297
v  -606.2227 -494.7208 161.2542
v  -685.5979 -494.7208 54.9627
v  -1556.2483 -494.7208 467.0347
v  -1507.7428 -494.7208 -153.7123
v  -684.4412 -494.7208 -460.6901
v  -1237.4082 -494.7208 -1119.3276
v  -388.4410 -494.7208 -1222.0393
v  -1116.9154 -494.7208 -1832.0417
v  -360.9223 -494.7208 -2075.1172
v  189.4503 -494.7208 -3065.7883
v  372.9078 13.3206 -3643.6799
v  430.2327 13.3206 -3838.6978
v  -272.0803 13.3206 -3832.9109
v  -906.8060 13.3206 -2590.7451
v  -1116.9154 13.3206 -1832.0417
v  -1237.4082 13.3206 -1119.3276
v  -1507.7428 13.3206 -153.7123
v  -1556.2483 13.3206 467.0347
v  -1257.3694 13.3206 1030.3091
v  -931.4636 13.3206 1248.7271
v  -949.8862 13.3206 1880.9685
v  -831.6334 13.3206 2789.1116
v  -87.3211 13.3206 3833.6450
v  521.9428 13.3206 3839.6223
v  -258.3552 13.3206 2455.7378
v  -534.2223 13.3206 1570.5950
v  -545.7281 13.3206 1099.2876
v  -407.7944 13.3206 834.8919
v  -143.3875 13.3206 444.0457
v  247.4473 13.3206 363.5730
v  339.4030 13.3206 202.6390
v  299.5250 13.3206 -20.3919
v  135.7342 13.3206 -153.2080
v  -136.1445 13.3206 -42.6297
v  -606.2227 13.3206 161.2542
v  -685.5979 13.3206 54.9627
v  -684.4412 13.3206 -460.6901
v  -388.4410 13.3206 -1222.0393
v  -360.9223 13.3206 -2075.1172
v  189.4503 13.3206 -3065.7883
# 60 vertices

vn 0.0000 1.0000 -0.0000
vn -0.9594 0.0000 -0.2820
vn 0.8905 0.0000 0.4550
vn 0.9637 0.0000 0.2669
vn 0.9860 0.0000 0.1667
vn 0.9630 0.0000 0.2696
vn 0.9970 0.0000 0.0779
vn 0.8834 0.0000 -0.4687
vn 0.5567 0.0000 -0.8307
vn 0.9996 0.0000 0.0291
vn 0.9916 0.0000 -0.1291
vn 0.8144 0.0000 -0.5803
vn -0.8711 0.0000 0.4912
vn -0.9547 0.0000 0.2975
vn -0.9997 0.0000 0.0244
vn -0.8866 0.0000 -0.4625
vn -0.8283 0.0000 -0.5603
vn -0.2017 0.0000 -0.9795
vn -0.8683 0.0000 -0.4961
vn -0.9844 0.0000 0.1760
vn -0.6298 0.0000 0.7767
vn 0.3768 0.0000 0.9263
vn 0.3979 0.0000 0.9174
vn -0.8012 0.0000 0.5983
vn -1.0000 0.0000 -0.0022
vn -0.9320 0.0000 -0.3624
vn -0.9995 0.0000 -0.0322
vn -0.8742 0.0000 -0.4856
vn -0.9531 0.0000 -0.3026
# 29 vertex normals

g Collision_Mesh
s 1
f 1//1 2//1 3//1 
f 1//1 3//1 4//1 
f 5//1 6//1 7//1 
f 8//1 5//1 7//1 
f 9//1 8//1 7//1 
f 9//1 7//1 10//1 
f 11//1 9//1 10//1 
f 11//1 10//1 12//1 
f 13//1 11//1 12//1 
f 13//1 12//1 14//1 
f 15//1 16//1 17//1 
f 18//1 15//1 17//1 
f 19//1 18//1 17//1 
f 19//1 17//1 20//1 
f 19//1 20//1 21//1 
f 14//1 19//1 21//1 
f 13//1 14//1 21//1 
f 13//1 21//1 22//1 
f 23//1 13//1 22//1 
f 24//1 23//1 22//1 
f 24//1 22//1 25//1 
f 26//1 24//1 25//1 
f 26//1 25//1 27//1 
f 28//1 26//1 27//1 
f 28//1 27//1 29//1 
f 4//1 28//1 29//1 
f 4//1 29//1 30//1 
f 1//1 4//1 30//1 
s off
f 1//2 31//2 32//2 
f 32//2 2//2 1//2 
f 4//3 3//3 33//3 
f 33//3 34//3 4//3 
f 28//4 4//4 34//4 
f 34//4 35//4 28//4 
f 26//5 28//5 35//5 
f 35//5 36//5 26//5 
f 24//6 26//6 36//6 
f 36//6 37//6 24//6 
f 23//7 24//7 37//7 
f 37//7 38//7 23//7 
f 13//8 23//8 38//8 
f 38//8 39//8 13//8 
f 11//9 13//9 39//9 
f 39//9 40//9 11//9 
f 9//10 11//10 40//10 
f 40//10 41//10 9//10 
f 8//11 9//11 41//11 
f 41//11 42//11 8//11 
f 5//12 8//12 42//12 
f 42//12 43//12 5//12 
f 7//13 6//13 44//13 
f 44//13 45//13 7//13 
f 10//14 7//14 45//14 
f 45//14 46//14 10//14 
f 12//15 10//15 46//15 
f 46//15 47//15 12//15 
f 14//16 12//16 47//16 
f 47//16 48//16 14//16 
f 19//17 14//17 48//17 
f 48//17 49//17 19//17 
f 18//18 19//18 49//18 
f 49//18 50//18 18//18 
f 15//19 18//19 50//19 
f 50//19 51//19 15//19 
f 16//20 15//20 51//20 
f 51//20 52//20 16//20 
f 17//21 16//21 52//21 
f 52//21 53//21 17//21 
f 20//22 17//22 53//22 
f 53//22 54//22 20//22 
f 21//23 20//23 54//23 
f 54//23 55//23 21//23 
f 22//24 21//24 55//24 
f 55//24 56//24 22//24 
f 25//25 22//25 56//25 
f 56//25 57//25 25//25 
f 27//26 25//26 57//26 
f 57//26 58//26 27//26 
f 29//27 27//27 58//27 
f 58//27 59//27 29//27 
f 30//28 29//28 59//28 
f 59//28 60//28 30//28 
f 1//29 30//29 60//29 
f 60//29 31//29 1//29 
# 84 faces

