# 3ds Max Wavefront OBJ Exporter v0.97b - (c)2007 guruware
# File Created: 30.04.2010 04:34:17

#
# object Cavern1_Collision
#

v  -1529.5099 0.0000 -2373.3804
v  -930.6171 0.0000 -1911.7682
v  -947.9574 0.0000 -2180.5430
v  -1138.7009 0.0000 -2267.2446
v  -843.9155 0.0000 -2908.8364
v  -644.5018 0.0000 -2622.7212
v  -184.9833 0.0000 -2622.7212
v  101.1320 0.0000 -2856.8159
v  517.2997 0.0000 -3021.5488
v  -1182.0518 0.0000 -2926.1768
v  1282.1661 0.0000 -2076.9585
v  950.8076 0.0000 -2189.2134
v  734.0537 0.0000 -1885.7579
v  1531.7085 0.0000 -1816.3962
v  508.6295 0.0000 -2128.5225
v  220.5753 0.0000 -1897.7218
v  200.9070 0.0000 -1370.7153
v  154.0268 0.0000 -1668.6519
v  457.3869 0.0000 -1035.1528
v  870.6854 0.0000 -777.4189
v  942.1375 0.0000 -940.7102
v  -34.6416 0.0000 -155.1457
v  -188.8365 0.0000 -34.4714
v  -216.9942 0.0000 140.8426
v  342.0160 0.0000 -196.4186
v  -798.9122 0.0000 1098.5261
v  736.4846 0.0000 -430.9714
v  -638.0132 0.0000 186.7649
v  -388.3140 0.0000 189.3174
v  -477.1141 0.0000 180.0605
v  -812.3204 0.0000 401.2969
v  -1383.6599 0.0000 943.4979
v  -1650.3364 0.0000 904.1064
v  -2131.3811 0.0000 1055.8649
v  -1181.0475 0.0000 1178.9757
v  -1911.7974 0.0000 910.8105
v  -2287.2285 0.0000 1051.5973
v  -2428.0151 0.0000 1232.6088
v  -2171.2214 0.0000 2050.7546
v  -2401.1987 0.0000 1789.0513
v  -919.5865 0.0000 1212.4963
v  -1594.6665 0.0000 2044.0505
v  -1219.2354 0.0000 1903.2639
v  -168.7242 0.0000 488.4506
v  -651.4214 0.0000 1393.5078
v  1426.8583 0.0000 -745.1089
v  246.9318 0.0000 374.4803
v  421.2391 0.0000 133.1318
v  1044.7229 0.0000 -309.3406
v  1802.2894 0.0000 -751.8130
v  -79.3623 0.0000 1146.8197
v  -286.5086 0.0000 1618.9480
v  -240.2458 0.0000 1801.4491
v  203.7038 0.0000 999.9955
v  -256.8889 0.0000 2173.1455
v  706.2004 0.0000 364.7639
v  -436.0157 0.0000 2373.6118
v  -1233.2853 0.0000 2428.3398
v  -1424.7968 0.0000 2506.3672
v  -2059.8936 0.0000 2761.2021
v  -1843.5331 0.0000 2611.4141
v  -2376.1128 0.0000 3216.1143
v  -2315.0884 0.0000 3471.3086
v  -1576.6930 0.0000 3299.7632
v  -2114.2310 0.0000 3642.8076
v  -878.6024 0.0000 3652.7637
v  -639.1505 0.0000 3454.0122
v  -199.7944 0.0000 3591.3110
v  621.0785 0.0000 3623.1260
v  99.9916 0.0000 3330.7373
v  -305.7107 0.0000 3461.8579
v  969.3221 0.0000 1720.7567
v  917.2362 0.0000 3313.0513
v  1012.3572 0.0000 2273.2432
v  1208.4983 0.0000 1963.3405
v  1220.2667 0.0000 1704.4343
v  1358.8806 0.0000 2600.3188
v  1379.7925 0.0000 3265.4834
v  1457.6757 0.0000 3636.7466
v  1796.9214 0.0000 1939.8036
v  1316.7402 0.0000 3494.0884
v  2097.4224 0.0000 3599.8716
v  2342.0181 0.0000 3304.8022
v  2126.6060 0.0000 2837.0239
v  2286.0322 0.0000 2880.1655
v  2025.9076 0.0000 2952.1919
v  1892.9133 0.0000 3031.6724
v  1729.1022 0.0000 3014.7451
v  1661.7609 0.0000 2744.1079
v  2069.2583 0.0000 907.2883
v  2346.7036 0.0000 1616.9872
v  1852.5044 0.0000 2414.6416
v  2286.0122 0.0000 2111.1863
v  2341.1104 0.0000 1100.2828
v  1800.8442 0.0000 1441.6052
v  1840.0725 0.0000 1665.2061
v  1357.5654 0.0000 1508.2932
v  1538.0153 0.0000 1382.7629
v  1661.7609 0.0000 923.5009
v  1262.9335 0.0000 1036.0864
v  1080.8601 0.0000 1200.8195
v  784.5986 0.0000 2058.9226
v  239.8546 0.0000 2822.1392
v  172.6162 0.0000 3273.5708
v  -74.6921 0.0000 3344.3589
v  -847.7844 0.0000 3320.2109
v  -214.2143 0.0000 3178.6450
v  -453.7583 0.0000 3177.6157
v  -722.5332 0.0000 3203.6265
v  -1137.2461 0.0000 3412.9912
v  -1381.4655 0.0000 3420.3804
v  -1342.3463 0.0000 2847.4731
v  -1589.5492 0.0000 3116.9248
v  -124.2922 0.0000 2570.7046
v  -522.8937 0.0000 2692.4058
v  239.8546 0.0000 1582.3065
v  205.1739 0.0000 2015.8145
v  107.4742 0.0000 2304.5093
v  985.4883 0.0000 550.5574
v  1271.6036 0.0000 489.8663
v  1752.0647 0.0000 243.5309
v  1575.0592 0.0000 463.8558
v  2069.2583 0.0000 420.5050
v  2036.9338 0.0000 -517.1687
v  2024.7355 0.0000 -27.5998
v  2338.0332 0.0000 73.6986
v  2381.3843 0.0000 -585.2336
v  1878.5149 0.0000 -888.6892
v  2242.6616 0.0000 -897.3594
v  1306.2843 0.0000 -871.3489
v  479.1195 0.0000 -1581.8164
v  604.0012 0.0000 -1192.1448
v  1124.2109 0.0000 -1781.7157
v  1739.7922 0.0000 -1773.0455
v  1913.1954 0.0000 -1426.2391
v  1462.3472 0.0000 -1460.9198
v  2043.2479 0.0000 -2180.5430
v  1930.5358 0.0000 -1920.4386
v  2329.3633 0.0000 -2874.1558
v  2338.0332 0.0000 -1859.7472
v  1679.1012 0.0000 -2813.4648
v  1991.2269 0.0000 -2588.0405
v  846.7657 0.0000 -3038.8892
v  1314.9545 0.0000 -2917.5068
v  2251.3315 0.0000 -3142.9312
v  2074.9402 0.0000 -3368.1055
v  1416.0078 0.0000 -3411.4561
v  985.4883 0.0000 -3541.7583
v  643.1085 0.0000 -3502.4741
v  342.4186 0.0000 -3377.3638
v  22.0037 0.0000 -3383.4004
v  -274.1996 0.0000 -3484.5288
v  -789.7319 0.0000 -3550.1416
v  -1212.4081 0.0000 -3474.8828
v  -2291.8320 0.0000 -1729.6947
v  -1506.4164 0.0000 -2595.3735
v  -1561.1770 0.0000 -3470.5620
v  -1965.7162 0.0000 -3304.6587
v  -2291.8320 0.0000 -2891.4961
v  -1691.6262 0.0000 -1171.8024
v  -1372.7953 0.0000 -1096.7731
v  -1147.3711 0.0000 -1053.4222
v  -2559.0552 0.0000 214.1994
v  -1338.1146 0.0000 -446.5110
v  -2135.7695 0.0000 -463.8513
v  -2368.8523 0.0000 -424.1610
v  -2559.0552 0.0000 -494.4620
v  -237.0042 0.0000 -784.6472
v  -1060.6694 0.0000 -576.5634
v  -2073.0999 0.0000 148.6320
v  -1557.5339 0.0000 101.0737
v  -1069.3396 0.0000 39.0180
v  -533.0170 0.0000 -298.5530
v  -982.6381 0.0000 -827.9980
v  -1605.4972 0.0000 -1450.0435
v  -289.0252 0.0000 -992.7311
v  -514.4493 0.0000 -1044.7521
v  -1067.6265 0.0000 -1236.4011
v  -635.8317 0.0000 -1226.8254
v  -1346.6965 0.0000 -1376.0100
v  -1788.9629 0.0000 -1547.6213
v  -1780.2927 0.0000 -1738.3649
v  -1650.6893 0.0000 -1948.2672
v  -1268.7533 0.0000 -1790.3859
v  -1502.8477 0.0000 -1920.4386
v  -1069.3396 0.0000 -1781.7157
# 186 vertices

vn 0.0000 1.0000 -0.0000
# 1 vertex normals

vt 0.0000 0.0000 0.0000
# 1 texture coords

g Cavern1_Collision
s 1
f 1/1/1 2/1/1 3/1/1 4/1/1 
f 5/1/1 6/1/1 7/1/1 8/1/1 
f 8/1/1 9/1/1 10/1/1 5/1/1 
f 11/1/1 12/1/1 13/1/1 14/1/1 
f 12/1/1 15/1/1 16/1/1 17/1/1 
f 16/1/1 18/1/1 17/1/1 
f 19/1/1 20/1/1 21/1/1 17/1/1 
f 22/1/1 23/1/1 24/1/1 25/1/1 
f 24/1/1 26/1/1 27/1/1 25/1/1 
f 28/1/1 26/1/1 29/1/1 30/1/1 
f 28/1/1 31/1/1 26/1/1 
f 24/1/1 29/1/1 26/1/1 
f 32/1/1 33/1/1 34/1/1 35/1/1 
f 33/1/1 36/1/1 34/1/1 
f 34/1/1 37/1/1 38/1/1 39/1/1 
f 38/1/1 40/1/1 39/1/1 
f 35/1/1 34/1/1 39/1/1 41/1/1 
f 41/1/1 39/1/1 42/1/1 43/1/1 
f 44/1/1 26/1/1 41/1/1 43/1/1 
f 43/1/1 45/1/1 44/1/1 
f 27/1/1 26/1/1 44/1/1 46/1/1 
f 46/1/1 44/1/1 47/1/1 48/1/1 
f 48/1/1 49/1/1 46/1/1 
f 20/1/1 27/1/1 46/1/1 50/1/1 
f 51/1/1 52/1/1 53/1/1 54/1/1 
f 53/1/1 55/1/1 56/1/1 54/1/1 
f 57/1/1 58/1/1 59/1/1 60/1/1 
f 59/1/1 61/1/1 60/1/1 
f 62/1/1 63/1/1 64/1/1 60/1/1 
f 63/1/1 65/1/1 66/1/1 67/1/1 
f 68/1/1 69/1/1 70/1/1 71/1/1 
f 72/1/1 69/1/1 73/1/1 74/1/1 
f 72/1/1 74/1/1 75/1/1 76/1/1 
f 77/1/1 78/1/1 79/1/1 80/1/1 
f 78/1/1 81/1/1 79/1/1 
f 79/1/1 82/1/1 83/1/1 84/1/1 
f 83/1/1 85/1/1 84/1/1 
f 84/1/1 86/1/1 87/1/1 79/1/1 
f 87/1/1 88/1/1 89/1/1 79/1/1 
f 90/1/1 80/1/1 79/1/1 89/1/1 
f 91/1/1 90/1/1 92/1/1 93/1/1 
f 91/1/1 94/1/1 90/1/1 
f 89/1/1 92/1/1 90/1/1 
f 90/1/1 95/1/1 96/1/1 80/1/1 
f 95/1/1 90/1/1 97/1/1 98/1/1 
f 90/1/1 99/1/1 100/1/1 72/1/1 
f 100/1/1 101/1/1 72/1/1 
f 97/1/1 90/1/1 72/1/1 76/1/1 
f 102/1/1 103/1/1 104/1/1 72/1/1 
f 70/1/1 69/1/1 72/1/1 104/1/1 
f 70/1/1 105/1/1 67/1/1 71/1/1 
f 106/1/1 105/1/1 107/1/1 108/1/1 
f 108/1/1 109/1/1 106/1/1 
f 106/1/1 110/1/1 67/1/1 105/1/1 
f 63/1/1 67/1/1 110/1/1 111/1/1 
f 63/1/1 111/1/1 64/1/1 
f 112/1/1 60/1/1 64/1/1 113/1/1 
f 114/1/1 57/1/1 60/1/1 112/1/1 
f 112/1/1 115/1/1 114/1/1 
f 57/1/1 114/1/1 116/1/1 55/1/1 
f 117/1/1 116/1/1 114/1/1 118/1/1 
f 116/1/1 119/1/1 56/1/1 55/1/1 
f 119/1/1 120/1/1 121/1/1 56/1/1 
f 120/1/1 122/1/1 123/1/1 121/1/1 
f 123/1/1 124/1/1 125/1/1 121/1/1 
f 124/1/1 123/1/1 126/1/1 127/1/1 
f 128/1/1 50/1/1 124/1/1 127/1/1 
f 127/1/1 129/1/1 128/1/1 
f 50/1/1 128/1/1 130/1/1 20/1/1 
f 20/1/1 130/1/1 21/1/1 
f 131/1/1 17/1/1 21/1/1 132/1/1 
f 17/1/1 131/1/1 13/1/1 12/1/1 
f 13/1/1 133/1/1 134/1/1 14/1/1 
f 135/1/1 134/1/1 133/1/1 136/1/1 
f 135/1/1 137/1/1 138/1/1 134/1/1 
f 139/1/1 137/1/1 135/1/1 140/1/1 
f 139/1/1 141/1/1 142/1/1 137/1/1 
f 139/1/1 143/1/1 144/1/1 141/1/1 
f 145/1/1 146/1/1 147/1/1 139/1/1 
f 148/1/1 149/1/1 150/1/1 147/1/1 
f 151/1/1 139/1/1 147/1/1 150/1/1 
f 152/1/1 153/1/1 154/1/1 151/1/1 
f 151/1/1 154/1/1 143/1/1 139/1/1 
f 154/1/1 10/1/1 9/1/1 143/1/1 
f 154/1/1 155/1/1 156/1/1 10/1/1 
f 154/1/1 157/1/1 158/1/1 155/1/1 
f 158/1/1 159/1/1 155/1/1 
f 155/1/1 160/1/1 161/1/1 162/1/1 
f 163/1/1 164/1/1 165/1/1 166/1/1 
f 166/1/1 167/1/1 163/1/1 
f 163/1/1 168/1/1 169/1/1 164/1/1 
f 170/1/1 171/1/1 172/1/1 168/1/1 
f 172/1/1 173/1/1 168/1/1 
f 163/1/1 170/1/1 168/1/1 
f 169/1/1 168/1/1 162/1/1 174/1/1 
f 155/1/1 162/1/1 168/1/1 175/1/1 
f 168/1/1 176/1/1 177/1/1 178/1/1 
f 177/1/1 179/1/1 178/1/1 
f 178/1/1 180/1/1 175/1/1 168/1/1 
f 155/1/1 175/1/1 181/1/1 182/1/1 
f 155/1/1 182/1/1 1/1/1 156/1/1 
f 1/1/1 182/1/1 183/1/1 2/1/1 
f 184/1/1 2/1/1 183/1/1 185/1/1 
f 2/1/1 184/1/1 186/1/1 
# 80 polygons - 24 triangles

