# 3ds Max Wavefront OBJ Exporter v0.97b - (c)2007 guruware
# File Created: 31.03.2010 04:02:27

#
# object Collision_Floor
#

v  -1503.3011 12.9921 -48.0267
v  -1503.4635 12.9921 147.0500
v  -1234.8733 12.9921 110.8339
v  -1130.5452 12.9921 -46.3264
v  -1183.0715 12.9921 147.0500
v  -1079.8679 12.9921 133.2067
v  -844.7292 12.9921 -138.8815
v  -872.6234 12.9921 239.1057
v  -766.7245 12.9921 225.2991
v  1525.9951 12.9921 114.8103
v  1525.9951 12.9921 -103.3226
v  1014.5806 12.9921 -127.7447
v  1295.2413 12.9921 133.5102
v  1182.2191 12.9921 181.9725
v  1047.3643 12.9921 155.1053
v  915.6862 12.9921 52.8996
v  690.3662 12.9921 -195.7290
v  720.0707 12.9921 42.2019
v  416.5231 12.9921 124.0269
v  230.1265 12.9921 -243.9480
v  88.8747 12.9921 -139.2560
v  -76.9456 12.9921 396.8525
v  -235.0681 12.9921 -180.8922
v  -564.1801 12.9921 326.6081
v  -692.6814 12.9921 -239.9391
v  -1503.4635 170.4724 147.0500
v  -1234.8733 170.4724 110.8339
v  -1130.5452 170.4724 -46.3264
v  -1503.3011 170.4724 -48.0267
v  -1183.0715 170.4724 147.0500
v  -1079.8679 170.4724 133.2067
v  -844.7292 170.4724 -138.8815
v  -872.6234 170.4724 239.1057
v  -766.7245 170.4724 225.2991
v  1525.9951 170.4724 -103.3226
v  1014.5806 170.4724 -127.7447
v  1295.2413 170.4724 133.5102
v  1525.9951 170.4724 114.8103
v  1182.2191 170.4724 181.9725
v  1047.3643 170.4724 155.1053
v  915.6862 170.4724 52.8996
v  690.3662 170.4724 -195.7290
v  720.0707 170.4724 42.2019
v  416.5231 170.4724 124.0269
v  230.1265 170.4724 -243.9480
v  88.8747 170.4724 -139.2560
v  -76.9456 170.4724 396.8525
v  -235.0681 170.4724 -180.8922
v  -564.1801 170.4724 326.6081
v  -692.6814 170.4724 -239.9391
# 50 vertices

vn -0.0032 0.7063 0.7079
vn -0.0986 0.6747 -0.7315
vn 0.1419 0.7988 -0.5846
vn 0.1026 0.7445 0.6597
vn 0.1827 0.6338 -0.7517
vn 0.1054 0.7808 -0.6158
vn 0.2929 0.7391 0.6066
vn 0.1302 0.6461 -0.7521
vn 0.1042 0.7792 -0.6180
vn -0.0557 0.7246 -0.6869
vn -0.0332 0.7176 0.6957
vn -0.0873 0.7254 0.6827
vn -0.1604 0.7453 -0.6471
vn -0.0794 0.6461 -0.7591
vn 0.3125 0.6589 -0.6843
vn 0.2186 0.7808 -0.5854
vn -0.1113 0.6958 0.7096
vn -0.0695 0.7445 -0.6640
vn -0.2540 0.7353 -0.6284
vn 0.2039 0.6339 0.7461
vn 0.1508 0.8016 0.5785
vn -0.1380 0.6420 -0.7542
vn -0.0903 0.7072 0.7013
vn 0.2211 0.6729 -0.7059
vn 0.1752 0.6362 0.7514
vn -0.1336 0.0000 -0.9910
vn 0.2358 0.0000 -0.9718
vn 0.1537 0.0000 0.9881
vn -0.0046 0.0000 1.0000
vn 0.2361 0.0000 -0.9717
vn 0.1687 0.0000 -0.9857
vn 0.4349 0.0000 0.9005
vn 0.1705 0.0000 -0.9854
vn 0.1663 0.0000 -0.9861
vn -0.0477 0.0000 0.9989
vn -0.1269 0.0000 0.9919
vn -0.2406 0.0000 -0.9706
vn -0.0808 0.0000 -0.9967
vn -0.1040 0.0000 -0.9946
vn 0.4154 0.0000 -0.9097
vn 0.3498 0.0000 -0.9368
vn -0.1549 0.0000 0.9879
vn -0.1041 0.0000 -0.9946
vn -0.3748 0.0000 -0.9271
vn 0.2636 0.0000 0.9646
vn 0.2522 0.0000 0.9677
vn -0.1799 0.0000 -0.9837
vn -0.1277 0.0000 0.9918
vn 0.2989 0.0000 -0.9543
vn 0.2271 0.0000 0.9739
# 50 vertex normals

g Collision_Floor
s 1
f 1//1 2//2 3//3 
f 4//4 1//1 3//3 
f 4//4 3//3 5//5 
f 4//4 5//5 6//6 
f 7//7 4//4 6//6 
f 7//7 6//6 8//8 
f 7//7 8//8 9//9 
f 10//10 11//11 12//12 
f 13//13 10//10 12//12 
f 14//14 13//13 12//12 
f 15//15 14//14 12//12 
f 16//16 15//15 12//12 
f 16//16 12//12 17//17 
f 18//18 16//16 17//17 
f 19//19 18//18 17//17 
f 19//19 17//17 20//20 
f 19//19 20//20 21//21 
f 22//22 19//19 21//21 
f 22//22 21//21 23//23 
f 24//24 22//22 23//23 
f 24//24 23//23 25//25 
f 9//9 24//24 25//25 
f 7//7 9//9 25//25 
f 26//26 27//27 3//3 
f 3//3 2//2 26//26 
f 28//28 29//29 1//1 
f 1//1 4//4 28//28 
f 27//27 30//30 5//5 
f 5//5 3//3 27//27 
f 30//30 31//31 6//6 
f 6//6 5//5 30//30 
f 32//32 28//28 4//4 
f 4//4 7//7 32//32 
f 31//31 33//33 8//8 
f 8//8 6//6 31//31 
f 33//33 34//34 9//9 
f 9//9 8//8 33//33 
f 35//35 36//36 12//12 
f 12//12 11//11 35//35 
f 37//37 38//38 10//10 
f 10//10 13//13 37//37 
f 39//39 37//37 13//13 
f 13//13 14//14 39//39 
f 40//40 39//39 14//14 
f 14//14 15//15 40//40 
f 41//41 40//40 15//15 
f 15//15 16//16 41//41 
f 36//36 42//42 17//17 
f 17//17 12//12 36//36 
f 43//43 41//41 16//16 
f 16//16 18//18 43//43 
f 44//44 43//43 18//18 
f 18//18 19//19 44//44 
f 42//42 45//45 20//20 
f 20//20 17//17 42//42 
f 45//45 46//46 21//21 
f 21//21 20//20 45//45 
f 47//47 44//44 19//19 
f 19//19 22//22 47//47 
f 46//46 48//48 23//23 
f 23//23 21//21 46//46 
f 49//49 47//47 22//22 
f 22//22 24//24 49//49 
f 48//48 50//50 25//25 
f 25//25 23//23 48//48 
f 34//34 49//49 24//24 
f 24//24 9//9 34//34 
f 50//50 32//32 7//7 
f 7//7 25//25 50//50 
# 69 faces

#
# object Collision_Roof
#

v  -1503.4635 314.9606 147.0500
v  -1503.3011 314.9606 -48.0267
v  -1234.8733 314.9606 110.8339
v  -1130.5452 314.9606 -46.3264
v  -1183.0715 314.9606 147.0500
v  -1079.8679 314.9606 133.2068
v  -844.7292 314.9606 -138.8815
v  -872.6234 314.9606 239.1057
v  -766.7245 314.9606 225.2991
v  1525.9951 314.9606 -103.3226
v  1525.9951 314.9606 114.8103
v  1014.5806 314.9606 -127.7447
v  1295.2413 314.9606 133.5102
v  1182.2191 314.9606 181.9725
v  1047.3643 314.9606 155.1053
v  915.6862 314.9606 52.8996
v  690.3662 314.9606 -195.7290
v  720.0707 314.9606 42.2019
v  416.5231 314.9606 124.0269
v  230.1265 314.9606 -243.9480
v  88.8747 314.9606 -139.2560
v  -76.9456 314.9606 396.8525
v  -235.0681 314.9606 -180.8922
v  -564.1801 314.9606 326.6081
v  -692.6814 314.9606 -239.9391
v  -1234.8733 157.4803 110.8339
v  -1503.4635 157.4803 147.0500
v  -1503.3011 157.4803 -48.0267
v  -1130.5452 157.4803 -46.3264
v  -1183.0715 157.4803 147.0500
v  -1079.8679 157.4803 133.2068
v  -844.7292 157.4803 -138.8815
v  -872.6234 157.4803 239.1057
v  -766.7245 157.4803 225.2991
v  1014.5806 157.4803 -127.7447
v  1525.9951 157.4803 -103.3226
v  1525.9951 157.4803 114.8103
v  1295.2413 157.4803 133.5102
v  1182.2191 157.4803 181.9725
v  1047.3643 157.4803 155.1053
v  915.6862 157.4803 52.8996
v  690.3662 157.4803 -195.7290
v  720.0707 157.4803 42.2019
v  416.5231 157.4803 124.0269
v  230.1265 157.4803 -243.9480
v  88.8747 157.4803 -139.2560
v  -76.9456 157.4803 396.8525
v  -235.0681 157.4803 -180.8922
v  -564.1801 157.4803 326.6081
v  -692.6814 157.4803 -239.9391
# 50 vertices

vn -0.0986 -0.6747 -0.7315
vn -0.0032 -0.7063 0.7079
vn 0.1419 -0.7988 -0.5846
vn 0.1026 -0.7445 0.6597
vn 0.1827 -0.6338 -0.7517
vn 0.1054 -0.7808 -0.6158
vn 0.2929 -0.7391 0.6066
vn 0.1302 -0.6461 -0.7521
vn 0.1042 -0.7792 -0.6180
vn -0.0332 -0.7176 0.6957
vn -0.0557 -0.7246 -0.6869
vn -0.0873 -0.7254 0.6827
vn -0.1604 -0.7453 -0.6471
vn -0.0794 -0.6461 -0.7591
vn 0.3125 -0.6589 -0.6843
vn 0.2186 -0.7808 -0.5854
vn -0.1113 -0.6958 0.7096
vn -0.0695 -0.7445 -0.6640
vn -0.2540 -0.7353 -0.6284
vn 0.2039 -0.6339 0.7461
vn 0.1508 -0.8016 0.5785
vn -0.1380 -0.6420 -0.7542
vn -0.0903 -0.7072 0.7013
vn 0.2211 -0.6729 -0.7059
vn 0.1752 -0.6362 0.7514
vn 0.2358 0.0000 -0.9718
vn -0.1336 0.0000 -0.9910
vn -0.0046 0.0000 1.0000
vn 0.1537 0.0000 0.9881
vn 0.2361 0.0000 -0.9717
vn 0.1687 0.0000 -0.9857
vn 0.4349 0.0000 0.9005
vn 0.1705 0.0000 -0.9854
vn 0.1663 0.0000 -0.9861
vn -0.1269 0.0000 0.9919
vn -0.0477 0.0000 0.9989
vn -0.0808 0.0000 -0.9967
vn -0.2406 0.0000 -0.9706
vn -0.1040 0.0000 -0.9946
vn 0.4154 0.0000 -0.9097
vn 0.3498 0.0000 -0.9368
vn -0.1549 0.0000 0.9879
vn -0.1041 0.0000 -0.9946
vn -0.3748 0.0000 -0.9271
vn 0.2636 0.0000 0.9646
vn 0.2522 0.0000 0.9677
vn -0.1799 0.0000 -0.9837
vn -0.1277 0.0000 0.9918
vn 0.2989 0.0000 -0.9543
vn 0.2271 0.0000 0.9739
# 50 vertex normals

g Collision_Roof
s 1
f 51//51 52//52 53//53 
f 52//52 54//54 53//53 
f 53//53 54//54 55//55 
f 55//55 54//54 56//56 
f 54//54 57//57 56//56 
f 56//56 57//57 58//58 
f 58//58 57//57 59//59 
f 60//60 61//61 62//62 
f 61//61 63//63 62//62 
f 63//63 64//64 62//62 
f 64//64 65//65 62//62 
f 65//65 66//66 62//62 
f 62//62 66//66 67//67 
f 66//66 68//68 67//67 
f 68//68 69//69 67//67 
f 67//67 69//69 70//70 
f 70//70 69//69 71//71 
f 69//69 72//72 71//71 
f 71//71 72//72 73//73 
f 72//72 74//74 73//73 
f 73//73 74//74 75//75 
f 74//74 59//59 75//75 
f 59//59 57//57 75//75 
f 76//76 77//77 53//53 
f 51//51 53//53 77//77 
f 78//78 79//79 52//52 
f 54//54 52//52 79//79 
f 80//80 76//76 55//55 
f 53//53 55//55 76//76 
f 81//81 80//80 56//56 
f 55//55 56//56 80//80 
f 79//79 82//82 54//54 
f 57//57 54//54 82//82 
f 83//83 81//81 58//58 
f 56//56 58//58 81//81 
f 84//84 83//83 59//59 
f 58//58 59//59 83//83 
f 85//85 86//86 62//62 
f 60//60 62//62 86//86 
f 87//87 88//88 61//61 
f 63//63 61//61 88//88 
f 88//88 89//89 63//63 
f 64//64 63//63 89//89 
f 89//89 90//90 64//64 
f 65//65 64//64 90//90 
f 90//90 91//91 65//65 
f 66//66 65//65 91//91 
f 92//92 85//85 67//67 
f 62//62 67//67 85//85 
f 91//91 93//93 66//66 
f 68//68 66//66 93//93 
f 93//93 94//94 68//68 
f 69//69 68//68 94//94 
f 95//95 92//92 70//70 
f 67//67 70//70 92//92 
f 96//96 95//95 71//71 
f 70//70 71//71 95//95 
f 94//94 97//97 69//69 
f 72//72 69//69 97//97 
f 98//98 96//96 73//73 
f 71//71 73//73 96//96 
f 97//97 99//99 72//72 
f 74//74 72//72 99//99 
f 100//100 98//98 75//75 
f 73//73 75//75 98//98 
f 99//99 84//84 74//74 
f 59//59 74//74 84//84 
f 82//82 100//100 57//57 
f 75//75 57//57 100//100 
# 69 faces

